<svg width="10" height="10" viewBox="0 0 10 10" fill="none" xmlns="http://www.w3.org/2000/svg">
<mask id="path-1-outside-1_102_967" maskUnits="userSpaceOnUse" x="0" y="0" width="10" height="10" fill="black">
<rect fill="white" width="10" height="10"/>
<path fill-rule="evenodd" clip-rule="evenodd" d="M8.96764 2.22218C8.38461 1.63885 7.06692 0.706723 4.7617 1.08963C4.4839 1.13578 3.82318 1.40314 3.5969 1.50317C2.74481 1.87985 1.72961 3.29007 1.52074 4.36221C1.4915 4.62258 1.42327 4.94422 1.60611 5.80359C1.61977 5.86778 1.65253 5.98921 1.68157 6.04699C1.82422 6.33078 1.78659 6.56785 1.99262 6.80068C2.10325 6.9257 2.22226 7.04308 2.34886 7.15251C2.50717 7.28935 2.67734 7.41375 2.8578 7.5251C3.01968 7.62499 3.18984 7.71437 3.36713 7.7928C3.62446 7.90663 3.89683 7.9974 4.18077 8.06374C4.06414 7.9248 3.96025 7.77103 3.86966 7.6065L3.86953 7.60625C3.80926 7.49675 3.75487 7.38248 3.70654 7.26463L3.7062 7.26379C3.63711 7.09522 3.58041 6.91934 3.53657 6.73963L3.53639 6.73889C3.50249 6.5998 3.47629 6.45842 3.45802 6.31638C3.42793 6.08247 3.35325 5.69017 3.36713 5.45987C3.44199 4.21794 4.61824 2.72428 6.15556 2.93032C5.94599 2.58041 5.88751 2.22218 6.09708 1.69207C6.10173 1.68031 5.90579 2.78985 6.62685 3C7.34792 3.21015 8.67881 3.40895 8.8776 2.875C8.37743 2.875 7.62718 2.5 7.62718 2.25C7.86104 2.30801 9.22586 2.48054 8.96764 2.22218ZM2.97249 3.14602C3.18296 2.79114 3.70818 2.36055 3.99563 2.22218C4.06384 2.22218 4.08723 2.74474 3.90793 2.93032C3.62373 3.01308 3.03875 3.17207 2.97249 3.14602ZM3.18686 6.73963C3.06604 6.58661 3.00659 5.99486 3.0748 5.828C3.13327 5.84835 3.26482 5.97858 3.31354 6.12916L3.18686 6.73963Z"/>
<path d="M3.99563 2.22218C3.70818 2.36055 3.18296 2.79114 2.97249 3.14602C3.03875 3.17207 3.62373 3.01308 3.90793 2.93032C4.08723 2.74474 4.06384 2.22218 3.99563 2.22218Z"/>
<path d="M3.5969 1.50317C3.15842 1.59285 2.59245 1.64525 2.08575 1.40106L1 3.90979C1.03825 3.9844 1.44971 4.33616 1.52074 4.36221C1.72961 3.29007 2.74481 1.87985 3.5969 1.50317Z"/>
<path d="M1.68157 6.04699C1.71405 6.22696 1.6348 6.60784 1.70106 6.69901C1.78389 6.81296 1.94333 6.74608 1.99262 6.80068C1.78659 6.56785 1.82422 6.33078 1.68157 6.04699Z"/>
<path d="M1.99262 6.80068C2.01393 6.89429 2.03118 7.11005 2.08575 7.14261C2.15396 7.18331 2.2983 7.10957 2.34886 7.15251C2.22226 7.04308 2.10325 6.9257 1.99262 6.80068Z"/>
<path d="M2.34886 7.15251C2.42032 7.26314 2.54081 7.51296 2.60707 7.54552C2.68989 7.58622 2.76259 7.5251 2.8578 7.5251C2.67734 7.41375 2.50717 7.28935 2.34886 7.15251Z"/>
<path d="M2.8578 7.5251C2.93176 7.6065 3.0514 7.79703 3.09428 7.82634C3.14787 7.86296 3.29892 7.76331 3.36713 7.7928C3.18984 7.71437 3.01968 7.62499 2.8578 7.5251Z"/>
<path d="M3.44867 5.82401C3.42922 5.75388 3.38181 5.50799 3.36713 5.45987C3.35325 5.69017 3.42793 6.08247 3.45802 6.31638C3.45549 6.29623 3.46168 6.2403 3.48875 6.16993C3.5002 6.14019 3.50841 6.11149 3.50841 6.08854C3.50841 6.05053 3.47966 5.93579 3.44867 5.82401Z"/>
<path d="M3.58149 6.59726C3.562 6.54517 3.50405 6.38149 3.45802 6.31638C3.47629 6.45842 3.50249 6.5998 3.53639 6.73889C3.52215 6.67829 3.60575 6.66211 3.58149 6.59726Z"/>
<path d="M3.70329 7.09378C3.67211 7.03045 3.59215 6.82449 3.53657 6.73963C3.58041 6.91934 3.63711 7.09522 3.7062 7.26379C3.68356 7.20711 3.74208 7.17254 3.70329 7.09378Z"/>
<path d="M3.84458 7.45192C3.79391 7.41285 3.74444 7.30398 3.70654 7.26463C3.75487 7.38248 3.80926 7.49675 3.86953 7.60625C3.8496 7.56947 3.90778 7.50065 3.84458 7.45192Z"/>
<path d="M3.0748 5.828C3.00659 5.99486 3.06604 6.58661 3.18686 6.73963L3.31354 6.12916C3.26482 5.97858 3.13327 5.84835 3.0748 5.828Z"/>
<path d="M3.44867 5.82401C3.47966 5.93579 3.50841 6.05053 3.50841 6.08854C3.50841 6.11149 3.5002 6.14019 3.48875 6.16993C3.51201 6.16342 3.9208 6.31645 4.12229 6.39377C4.13788 6.32866 3.6797 5.9868 3.44867 5.82401Z"/>
<path d="M6.1588 8.60366C6.54467 8.42785 6.69311 8.15327 6.71909 8.03796C5.82015 8.26418 4.97474 8.24925 4.18077 8.06374C5.04995 9.13606 6.15068 9.07536 6.61191 8.90076C6.4599 8.72169 6.2465 8.62808 6.1588 8.60366Z"/>
</mask>
<path fill-rule="evenodd" clip-rule="evenodd" d="M8.96764 2.22218C8.38461 1.63885 7.06692 0.706723 4.7617 1.08963C4.4839 1.13578 3.82318 1.40314 3.5969 1.50317C2.74481 1.87985 1.72961 3.29007 1.52074 4.36221C1.4915 4.62258 1.42327 4.94422 1.60611 5.80359C1.61977 5.86778 1.65253 5.98921 1.68157 6.04699C1.82422 6.33078 1.78659 6.56785 1.99262 6.80068C2.10325 6.9257 2.22226 7.04308 2.34886 7.15251C2.50717 7.28935 2.67734 7.41375 2.8578 7.5251C3.01968 7.62499 3.18984 7.71437 3.36713 7.7928C3.62446 7.90663 3.89683 7.9974 4.18077 8.06374C4.06414 7.9248 3.96025 7.77103 3.86966 7.6065L3.86953 7.60625C3.80926 7.49675 3.75487 7.38248 3.70654 7.26463L3.7062 7.26379C3.63711 7.09522 3.58041 6.91934 3.53657 6.73963L3.53639 6.73889C3.50249 6.5998 3.47629 6.45842 3.45802 6.31638C3.42793 6.08247 3.35325 5.69017 3.36713 5.45987C3.44199 4.21794 4.61824 2.72428 6.15556 2.93032C5.94599 2.58041 5.88751 2.22218 6.09708 1.69207C6.10173 1.68031 5.90579 2.78985 6.62685 3C7.34792 3.21015 8.67881 3.40895 8.8776 2.875C8.37743 2.875 7.62718 2.5 7.62718 2.25C7.86104 2.30801 9.22586 2.48054 8.96764 2.22218ZM2.97249 3.14602C3.18296 2.79114 3.70818 2.36055 3.99563 2.22218C4.06384 2.22218 4.08723 2.74474 3.90793 2.93032C3.62373 3.01308 3.03875 3.17207 2.97249 3.14602ZM3.18686 6.73963C3.06604 6.58661 3.00659 5.99486 3.0748 5.828C3.13327 5.84835 3.26482 5.97858 3.31354 6.12916L3.18686 6.73963Z" fill="#A0C1DE"/>
<path d="M3.99563 2.22218C3.70818 2.36055 3.18296 2.79114 2.97249 3.14602C3.03875 3.17207 3.62373 3.01308 3.90793 2.93032C4.08723 2.74474 4.06384 2.22218 3.99563 2.22218Z" fill="#496584"/>
<path d="M3.5969 1.50317C3.15842 1.59285 2.59245 1.64525 2.08575 1.40106L1 3.90979C1.03825 3.9844 1.44971 4.33616 1.52074 4.36221C1.72961 3.29007 2.74481 1.87985 3.5969 1.50317Z" fill="#496584"/>
<path d="M1.68157 6.04699C1.71405 6.22696 1.6348 6.60784 1.70106 6.69901C1.78389 6.81296 1.94333 6.74608 1.99262 6.80068C1.78659 6.56785 1.82422 6.33078 1.68157 6.04699Z" fill="#496584"/>
<path d="M1.99262 6.80068C2.01393 6.89429 2.03118 7.11005 2.08575 7.14261C2.15396 7.18331 2.2983 7.10957 2.34886 7.15251C2.22226 7.04308 2.10325 6.9257 1.99262 6.80068Z" fill="#496584"/>
<path d="M2.34886 7.15251C2.42032 7.26314 2.54081 7.51296 2.60707 7.54552C2.68989 7.58622 2.76259 7.5251 2.8578 7.5251C2.67734 7.41375 2.50717 7.28935 2.34886 7.15251Z" fill="#496584"/>
<path d="M2.8578 7.5251C2.93176 7.6065 3.0514 7.79703 3.09428 7.82634C3.14787 7.86296 3.29892 7.76331 3.36713 7.7928C3.18984 7.71437 3.01968 7.62499 2.8578 7.5251Z" fill="#496584"/>
<path d="M3.44867 5.82401C3.42922 5.75388 3.38181 5.50799 3.36713 5.45987C3.35325 5.69017 3.42793 6.08247 3.45802 6.31638C3.45549 6.29623 3.46168 6.2403 3.48875 6.16993C3.5002 6.14019 3.50841 6.11149 3.50841 6.08854C3.50841 6.05053 3.47966 5.93579 3.44867 5.82401Z" fill="#496584"/>
<path d="M3.58149 6.59726C3.562 6.54517 3.50405 6.38149 3.45802 6.31638C3.47629 6.45842 3.50249 6.5998 3.53639 6.73889C3.52215 6.67829 3.60575 6.66211 3.58149 6.59726Z" fill="#496584"/>
<path d="M3.70329 7.09378C3.67211 7.03045 3.59215 6.82449 3.53657 6.73963C3.58041 6.91934 3.63711 7.09522 3.7062 7.26379C3.68356 7.20711 3.74208 7.17254 3.70329 7.09378Z" fill="#496584"/>
<path d="M3.84458 7.45192C3.79391 7.41285 3.74444 7.30398 3.70654 7.26463C3.75487 7.38248 3.80926 7.49675 3.86953 7.60625C3.8496 7.56947 3.90778 7.50065 3.84458 7.45192Z" fill="#496584"/>
<path d="M3.0748 5.828C3.00659 5.99486 3.06604 6.58661 3.18686 6.73963L3.31354 6.12916C3.26482 5.97858 3.13327 5.84835 3.0748 5.828Z" fill="#496584"/>
<path d="M3.44867 5.82401C3.47966 5.93579 3.50841 6.05053 3.50841 6.08854C3.50841 6.11149 3.5002 6.14019 3.48875 6.16993C3.51201 6.16342 3.9208 6.31645 4.12229 6.39377C4.13788 6.32866 3.6797 5.9868 3.44867 5.82401Z" fill="#496584"/>
<path d="M6.1588 8.60366C6.54467 8.42785 6.69311 8.15327 6.71909 8.03796C5.82015 8.26418 4.97474 8.24925 4.18077 8.06374C5.04995 9.13606 6.15068 9.07536 6.61191 8.90076C6.4599 8.72169 6.2465 8.62808 6.1588 8.60366Z" fill="#496584"/>
<path d="M3.99563 2.22218V2.11952H3.97221L3.9511 2.12968L3.99563 2.22218ZM2.97249 3.14602L2.88418 3.09365L2.82264 3.19743L2.93493 3.24157L2.97249 3.14602ZM3.90793 2.93032L3.93664 3.0289L3.96282 3.02127L3.98177 3.00166L3.90793 2.93032ZM3.0748 5.828L3.10855 5.73104L3.01661 5.69904L2.97977 5.78916L3.0748 5.828ZM3.18686 6.73963L3.10629 6.80326L3.24267 6.97598L3.28739 6.76049L3.18686 6.73963ZM3.31354 6.12916L3.41406 6.15002L3.41958 6.12341L3.41122 6.09756L3.31354 6.12916ZM1.99262 6.80068L2.06951 6.73265L1.99262 6.80068ZM2.34886 7.15251L2.416 7.07484L2.34886 7.15251ZM2.8578 7.5251L2.80388 7.61247L2.8578 7.5251ZM3.45802 6.31638L3.35619 6.32948L3.35619 6.32948L3.45802 6.31638ZM3.55539 1.40927C3.10518 1.6083 2.62534 2.07186 2.23446 2.61168C1.84246 3.15304 1.52814 3.78734 1.41997 4.34258L1.62151 4.38184C1.72221 3.86493 2.01993 3.25806 2.40077 2.73211C2.78273 2.20461 3.23653 1.77473 3.63841 1.59707L3.55539 1.40927ZM3.9511 2.12968C3.79578 2.20444 3.58474 2.35319 3.3876 2.52564C3.19056 2.69799 2.99743 2.9027 2.88418 3.09365L3.06079 3.19839C3.15802 3.03446 3.33273 2.84643 3.52279 2.68018C3.71274 2.51403 3.90802 2.37829 4.04016 2.31469L3.9511 2.12968ZM3.99563 2.32485C3.96429 2.32485 3.94378 2.30921 3.93528 2.30071C3.9274 2.29283 3.92498 2.28673 3.92572 2.28831C3.92701 2.29108 3.93092 2.30207 3.93476 2.32424C3.94213 2.36681 3.9458 2.43 3.94207 2.5013C3.93836 2.57227 3.92755 2.64683 3.90833 2.71257C3.88869 2.77974 3.86268 2.82941 3.8341 2.85899L3.98177 3.00166C4.04283 2.93845 4.08114 2.8532 4.10541 2.7702C4.13009 2.68576 4.14279 2.59488 4.14712 2.51202C4.15143 2.42948 4.14767 2.35043 4.13708 2.28922C4.13193 2.2595 4.12423 2.22821 4.11188 2.20169C4.1058 2.18862 4.09606 2.1711 4.08044 2.15548C4.06418 2.13924 4.0355 2.11952 3.99563 2.11952V2.32485ZM3.87923 2.83175C3.73797 2.87288 3.52213 2.93291 3.33392 2.97929C3.2396 3.00253 3.15373 3.02197 3.08818 3.03395C3.0552 3.03998 3.02935 3.04374 3.01104 3.04536C3.00182 3.04617 2.9964 3.04626 2.99395 3.04618C2.98922 3.04604 2.99739 3.0455 3.01005 3.05047L2.93493 3.24157C2.95587 3.2498 2.97637 3.25107 2.98763 3.25142C3.00117 3.25183 3.01538 3.2511 3.02906 3.24989C3.05653 3.24747 3.08948 3.24245 3.12509 3.23594C3.19675 3.22284 3.28731 3.20225 3.38305 3.17865C3.57494 3.13137 3.7937 3.07051 3.93664 3.0289L3.87923 2.83175ZM2.97977 5.78916C2.95523 5.84919 2.9461 5.9334 2.94392 6.01663C2.94164 6.10357 2.94678 6.20282 2.95794 6.30064C2.96909 6.3984 2.98653 6.49717 3.00967 6.58287C3.03185 6.66498 3.06249 6.74779 3.10629 6.80326L3.26744 6.67601C3.25082 6.65496 3.22872 6.60642 3.2079 6.52933C3.18805 6.45583 3.17223 6.36754 3.16195 6.27737C3.15167 6.18727 3.14719 6.09774 3.14918 6.02201C3.15126 5.94258 3.16027 5.89025 3.16984 5.86685L2.97977 5.78916ZM3.21301 6.1083L3.08634 6.71877L3.28739 6.76049L3.41406 6.15002L3.21301 6.1083ZM3.41122 6.09756C3.3816 6.00602 3.3283 5.92413 3.27573 5.86288C3.24916 5.83193 3.22145 5.80469 3.19489 5.78298C3.17018 5.76278 3.14 5.74199 3.10855 5.73104L3.04106 5.92496C3.03884 5.92419 3.04703 5.92731 3.06494 5.94196C3.08102 5.9551 3.1002 5.97364 3.11992 5.99661C3.15992 6.04321 3.19676 6.10173 3.21586 6.16077L3.41122 6.09756ZM1.58984 6.0931C1.65526 6.22326 1.67814 6.339 1.71436 6.47026C1.75013 6.59986 1.79744 6.73502 1.91573 6.86871L2.06951 6.73265C1.98178 6.6335 1.94488 6.53372 1.91229 6.41563C1.88016 6.2992 1.85052 6.15452 1.7733 6.00089L1.58984 6.0931ZM1.91573 6.86871C2.02945 6.99722 2.15173 7.11782 2.28172 7.23018L2.416 7.07484C2.2928 6.96835 2.17705 6.85418 2.06951 6.73265L1.91573 6.86871ZM2.28172 7.23018C2.44428 7.3707 2.61889 7.49832 2.80388 7.61247L2.91171 7.43773C2.73579 7.32918 2.57006 7.20801 2.416 7.07484L2.28172 7.23018ZM2.80388 7.61247C2.96983 7.71487 3.14414 7.80642 3.3256 7.88669L3.40867 7.69891C3.23553 7.62232 3.06952 7.5351 2.91171 7.43773L2.80388 7.61247ZM3.34973 5.85144C3.36506 5.90672 3.37958 5.96182 3.39018 6.00726C3.39549 6.03003 3.39962 6.0495 3.40236 6.06489C3.4054 6.08197 3.40574 6.0887 3.40574 6.08854H3.61107C3.61107 6.05546 3.60054 6.00518 3.59014 5.96061C3.57862 5.91123 3.56327 5.85308 3.5476 5.79657L3.34973 5.85144ZM3.40574 6.08854C3.40574 6.08828 3.40576 6.08924 3.4054 6.09167C3.40504 6.09405 3.40441 6.0973 3.40335 6.1015C3.40118 6.11005 3.39774 6.12059 3.39294 6.13307L3.58457 6.2068C3.59678 6.17508 3.61107 6.13149 3.61107 6.08854H3.40574ZM3.95947 7.55675C3.90116 7.45082 3.84845 7.34008 3.80153 7.22568L3.61155 7.30359C3.6613 7.42489 3.71735 7.54269 3.77959 7.65576L3.95947 7.55675ZM3.80119 7.22486C3.73413 7.06121 3.67899 6.89022 3.63631 6.7153L3.43683 6.76397C3.48184 6.94846 3.5401 7.12923 3.6112 7.30272L3.80119 7.22486ZM3.63614 6.71458C3.60314 6.5792 3.57763 6.44157 3.55984 6.30328L3.35619 6.32948C3.37495 6.47528 3.40184 6.6204 3.43665 6.7632L3.63614 6.71458ZM3.55984 6.30328C3.55215 6.24348 3.54166 6.17389 3.5307 6.10099C3.51967 6.02762 3.50807 5.95031 3.49786 5.87328C3.47716 5.71714 3.46333 5.5703 3.46961 5.46605L3.26465 5.45369C3.25705 5.57975 3.27362 5.7442 3.29431 5.90027C3.30479 5.97933 3.31665 6.05835 3.32765 6.13152C3.33872 6.20516 3.34884 6.27232 3.35619 6.32948L3.55984 6.30328ZM8.96764 2.22218L8.82241 2.36733L8.96764 2.22218ZM4.7617 1.08963L4.72806 0.887077L4.7617 1.08963ZM6.71909 8.03796L6.9194 8.0831L6.99281 7.75735L6.66898 7.83884L6.71909 8.03796ZM6.1588 8.60366L6.07367 8.41681L5.56107 8.65037L6.10373 8.80147L6.1588 8.60366ZM6.61191 8.90076L6.6846 9.09279L6.95679 8.98975L6.76844 8.76788L6.61191 8.90076ZM1.60611 5.80359L1.40528 5.84632L1.60611 5.80359ZM6.15556 2.93032L6.12828 3.13383L6.55069 3.19045L6.33171 2.82482L6.15556 2.93032ZM6.09708 1.69207L5.90612 1.61659L6.09708 1.69207ZM8.8776 2.875L9.07002 2.94664L9.17313 2.66967H8.8776V2.875ZM7.62718 2.25L7.67662 2.05071L7.42185 1.98751V2.25H7.62718ZM3.5969 1.50317L3.63804 1.70434L3.6597 1.69991L3.67992 1.69097L3.5969 1.50317ZM2.08575 1.40106L2.17489 1.21609L1.98225 1.12325L1.89731 1.31951L2.08575 1.40106ZM1 3.90979L0.81156 3.82824L0.773058 3.9172L0.81728 4.00346L1 3.90979ZM1.52074 4.36221L1.72479 4.38512L1.74278 4.22493L1.59143 4.16943L1.52074 4.36221ZM1.68157 6.04699L1.88364 6.01052L1.87836 5.98131L1.86503 5.95478L1.68157 6.04699ZM1.70106 6.69901L1.86715 6.57829L1.70106 6.69901ZM1.99262 6.80068L2.19283 6.75511L2.18094 6.70286L2.14503 6.66309L1.99262 6.80068ZM2.08575 7.14261L1.98054 7.31894L2.08575 7.14261ZM2.34886 7.15251L2.52134 7.0411L2.50489 7.01564L2.48178 6.99601L2.34886 7.15251ZM2.60707 7.54552L2.51651 7.72981L2.60707 7.54552ZM2.8578 7.5251L3.00976 7.38702L2.94866 7.31977H2.8578V7.5251ZM3.09428 7.82634L3.21014 7.65681L3.09428 7.82634ZM3.36713 7.7928L3.4502 7.60501L3.4486 7.60432L3.36713 7.7928ZM3.36713 5.45987L3.16217 5.44752L3.15995 5.48442L3.17073 5.51977L3.36713 5.45987ZM3.45802 6.31638L3.25428 6.34193L3.26068 6.39293L3.29035 6.43491L3.45802 6.31638ZM3.58149 6.59726L3.7738 6.52532L3.58149 6.59726ZM3.53657 6.73963L3.33709 6.7883L3.34546 6.8226L3.36481 6.85214L3.53657 6.73963ZM3.70329 7.09378L3.51908 7.18448L3.70329 7.09378ZM3.70654 7.26463L3.51655 7.34251L3.53144 7.37882L3.55866 7.40709L3.70654 7.26463ZM3.84458 7.45192L3.7192 7.61452L3.84458 7.45192ZM3.86966 7.6065L4.04954 7.50747L4.0494 7.50722L3.86966 7.6065ZM3.44867 5.82401L3.2508 5.87887L3.27041 5.94959L3.3304 5.99186L3.44867 5.82401ZM4.12229 6.39377L4.04872 6.58547L4.26743 6.66941L4.32198 6.44159L4.12229 6.39377ZM3.48875 6.16993L3.43338 5.97221L3.33413 6L3.29712 6.0962L3.48875 6.16993ZM3.86953 7.60625L3.68898 7.70406L3.68979 7.70553L3.86953 7.60625ZM3.7062 7.26379L3.51551 7.33996L3.51621 7.34166L3.7062 7.26379ZM3.53639 6.73889L3.3365 6.78586L3.33691 6.78756L3.53639 6.73889ZM9.11287 2.07703C8.49371 1.45755 7.11234 0.491035 4.72806 0.887077L4.79535 1.29219C7.02151 0.922412 8.27551 1.82015 8.82241 2.36733L9.11287 2.07703ZM6.51878 7.99283C6.50812 8.04015 6.40626 8.26527 6.07367 8.41681L6.24394 8.79051C6.68309 8.59042 6.8781 8.2664 6.9194 8.0831L6.51878 7.99283ZM6.10373 8.80147C6.16333 8.81807 6.33671 8.89385 6.45537 9.03364L6.76844 8.76788C6.58309 8.54953 6.32967 8.4381 6.21388 8.40586L6.10373 8.80147ZM4.13405 8.26369C4.95843 8.4563 5.83708 8.47165 6.7692 8.23709L6.66898 7.83884C5.80322 8.05671 4.99104 8.0422 4.22749 7.8638L4.13405 8.26369ZM6.53921 8.70872C6.14532 8.85783 5.14392 8.9259 4.34028 7.93445L4.02126 8.19304C4.95598 9.34621 6.15605 9.29288 6.6846 9.09279L6.53921 8.70872ZM6.33171 2.82482C6.23906 2.67013 6.18565 2.52386 6.17392 2.36377C6.16211 2.20256 6.19146 2.01184 6.28803 1.76756L5.90612 1.61659C5.79313 1.90242 5.74693 2.15587 5.76436 2.39378C5.78187 2.63281 5.86249 2.84061 5.9794 3.03582L6.33171 2.82482ZM6.28803 1.76756C6.28641 1.77154 6.28194 1.78144 6.279 1.78728C6.27365 1.79685 6.25512 1.82312 6.24076 1.83871C6.20284 1.86801 6.07641 1.89626 5.99706 1.87127C5.95229 1.83752 5.90755 1.77083 5.8995 1.74763C5.89652 1.73567 5.89328 1.71645 5.89255 1.70933C5.89221 1.7047 5.89188 1.69682 5.89183 1.69361C5.89179 1.68723 5.89206 1.68226 5.89218 1.68024C5.89244 1.67581 5.89279 1.67247 5.89286 1.67178C5.89299 1.67058 5.89309 1.66976 5.8931 1.66961C5.89314 1.66933 5.89311 1.66955 5.89295 1.67082C5.89279 1.67199 5.8926 1.6734 5.89234 1.67539C5.89129 1.68323 5.88962 1.69583 5.88769 1.71216C5.88383 1.74478 5.87897 1.79193 5.87547 1.84941C5.86851 1.96346 5.86659 2.12207 5.88991 2.29091C5.93499 2.6174 6.08858 3.057 6.5694 3.19713L6.68431 2.80287C6.44406 2.73285 6.33508 2.51261 6.29671 2.23473C6.2783 2.10139 6.27943 1.97169 6.28537 1.87443C6.28831 1.82627 6.29236 1.78702 6.29551 1.7604C6.29708 1.7471 6.29844 1.73686 6.2994 1.72963C6.29979 1.72672 6.3004 1.72217 6.30081 1.71878C6.30084 1.71859 6.30168 1.71197 6.30213 1.70443C6.30226 1.70223 6.30253 1.69712 6.30248 1.69063C6.30243 1.68736 6.3021 1.67944 6.30176 1.67476C6.30103 1.66761 6.29779 1.64836 6.2948 1.63637C6.28674 1.61315 6.24199 1.54645 6.19722 1.51269C6.11786 1.4877 5.99141 1.51596 5.95348 1.54526C5.93911 1.56086 5.92057 1.58715 5.91521 1.59675C5.91225 1.60263 5.90776 1.61256 5.90612 1.61659L6.28803 1.76756ZM6.5694 3.19713C6.94154 3.30559 7.47303 3.41212 7.94385 3.42182C8.17822 3.42665 8.41168 3.40792 8.60678 3.34467C8.80153 3.28153 8.98968 3.16247 9.07002 2.94664L8.68517 2.80336C8.66613 2.85451 8.61336 2.91083 8.48013 2.95402C8.34724 2.9971 8.16565 3.01565 7.95231 3.01125C7.52773 3.0025 7.03323 2.90456 6.68431 2.80287L6.5694 3.19713ZM8.8776 2.66967C8.66947 2.66967 8.38886 2.58866 8.15663 2.47258C8.04188 2.41523 7.94965 2.35454 7.88956 2.30048C7.81805 2.23615 7.83251 2.21859 7.83251 2.25H7.42185C7.42185 2.40641 7.5301 2.52948 7.61489 2.60577C7.71111 2.69233 7.8377 2.77227 7.97303 2.83992C8.24096 2.97384 8.58556 3.08033 8.8776 3.08033V2.66967ZM8.82241 2.36733C8.8276 2.37253 8.81215 2.35956 8.80214 2.32827C8.78891 2.28691 8.79199 2.23314 8.82213 2.18723C8.84562 2.15147 8.87338 2.13943 8.87448 2.13892C8.87809 2.13727 8.87455 2.13935 8.85936 2.14241C8.79225 2.15597 8.662 2.15874 8.49291 2.14969C8.1618 2.13198 7.77625 2.07542 7.67662 2.05071L7.57775 2.44929C7.71198 2.48259 8.12577 2.5413 8.47097 2.55977C8.64004 2.56881 8.81719 2.56989 8.94068 2.54495C8.97313 2.53839 9.00993 2.52854 9.04524 2.5124C9.07805 2.4974 9.12886 2.46829 9.16541 2.41263C9.20862 2.34683 9.21477 2.27033 9.19328 2.20315C9.175 2.14603 9.13996 2.10413 9.11287 2.07703L8.82241 2.36733ZM4.72806 0.887077C4.56666 0.913886 4.3141 0.999563 4.08822 1.08381C3.85643 1.17027 3.63092 1.26364 3.51389 1.31537L3.67992 1.69097C3.78917 1.64268 4.00715 1.55235 4.23174 1.46858C4.46225 1.3826 4.67895 1.31152 4.79535 1.29219L4.72806 0.887077ZM3.55576 1.30201C3.12894 1.38929 2.61902 1.43012 2.17489 1.21609L1.99661 1.58604C2.56588 1.86038 3.18789 1.7964 3.63804 1.70434L3.55576 1.30201ZM1.89731 1.31951L0.81156 3.82824L1.18844 3.99135L2.27419 1.48262L1.89731 1.31951ZM1.31669 4.33929C1.30298 4.46139 1.27628 4.62387 1.27857 4.86027C1.28088 5.09729 1.31169 5.40647 1.40528 5.84632L1.80695 5.76085C1.71769 5.34134 1.6912 5.06002 1.68922 4.85628C1.68723 4.65193 1.70926 4.5234 1.72479 4.38512L1.31669 4.33929ZM0.81728 4.00346C0.835384 4.03878 0.862459 4.06979 0.877468 4.08655C0.896836 4.10818 0.919963 4.13174 0.944273 4.15541C0.993173 4.20302 1.05367 4.25768 1.11396 4.30969C1.1743 4.36174 1.23664 4.41305 1.28962 4.45379C1.31595 4.47404 1.34162 4.49296 1.36451 4.50844C1.38155 4.51996 1.41471 4.54203 1.45005 4.55499L1.59143 4.16943C1.60901 4.17588 1.61378 4.18126 1.59457 4.16826C1.58121 4.15923 1.56279 4.14581 1.53996 4.12825C1.49461 4.09338 1.43838 4.0472 1.3822 3.99874C1.32596 3.95023 1.27198 3.90132 1.23075 3.86118C1.21 3.84097 1.19415 3.82461 1.18342 3.81262C1.16833 3.79577 1.17418 3.79946 1.18272 3.81612L0.81728 4.00346ZM1.40528 5.84632C1.41921 5.9118 1.45624 6.0559 1.49811 6.13921L1.86503 5.95478C1.84881 5.92252 1.82033 5.82376 1.80695 5.76085L1.40528 5.84632ZM1.4795 6.08346C1.48363 6.10635 1.48551 6.14608 1.48376 6.20597C1.48204 6.26451 1.47762 6.32598 1.47366 6.39444C1.46994 6.4587 1.46657 6.53025 1.46952 6.59355C1.47101 6.62546 1.47431 6.66097 1.48189 6.69582C1.48897 6.72837 1.5029 6.77561 1.53497 6.81973L1.86715 6.57829C1.88265 6.59961 1.88457 6.61501 1.88318 6.60857C1.88228 6.60444 1.88064 6.59384 1.87974 6.57441C1.8779 6.53503 1.87988 6.48302 1.88364 6.41816C1.88714 6.35752 1.8923 6.28433 1.89424 6.21798C1.89614 6.15299 1.89575 6.07762 1.88364 6.01052L1.4795 6.08346ZM1.53497 6.81973C1.63272 6.95422 1.77552 6.97157 1.84362 6.97682C1.86047 6.97812 1.87885 6.97899 1.8889 6.97956C1.90146 6.98028 1.90705 6.9808 1.90993 6.9812C1.92285 6.98298 1.87895 6.98118 1.84021 6.93827L2.14503 6.66309C2.08165 6.59288 1.99933 6.57897 1.96591 6.57437C1.94561 6.57158 1.92604 6.57035 1.91219 6.56956C1.89584 6.56863 1.88655 6.56825 1.87521 6.56738C1.83056 6.56393 1.85223 6.55775 1.86715 6.57829L1.53497 6.81973ZM1.79241 6.84625C1.79597 6.86191 1.79999 6.88581 1.80577 6.92171C1.81107 6.95456 1.81754 6.99524 1.82529 7.03441C1.83281 7.07243 1.84319 7.11781 1.85838 7.15925C1.86601 7.18008 1.87691 7.2057 1.89272 7.23105C1.90752 7.2548 1.9348 7.29165 1.98054 7.31894L2.19096 6.96628C2.22306 6.98543 2.23786 7.00843 2.24119 7.01377C2.24553 7.02073 2.24596 7.02341 2.24397 7.01798C2.23991 7.00688 2.23441 6.98636 2.22814 6.95467C2.22209 6.92413 2.21683 6.89128 2.2112 6.85633C2.20606 6.82443 2.19992 6.78626 2.19283 6.75511L1.79241 6.84625ZM1.98054 7.31894C2.04657 7.35834 2.11451 7.36141 2.15298 7.36057C2.19319 7.3597 2.2333 7.35309 2.25571 7.34958C2.26915 7.34747 2.27842 7.34603 2.28673 7.345C2.2906 7.34452 2.29347 7.34423 2.29557 7.34406C2.29768 7.34389 2.29849 7.34389 2.29827 7.34389C2.29808 7.34389 2.29617 7.34391 2.29291 7.34361C2.28967 7.34332 2.28424 7.34263 2.27724 7.34092C2.26325 7.33752 2.23968 7.32918 2.21593 7.30901L2.48178 6.99601C2.41096 6.93586 2.32902 6.93287 2.29375 6.93325C2.25415 6.93369 2.21329 6.94055 2.19214 6.94386C2.16362 6.94833 2.1517 6.94984 2.14407 6.95001C2.13472 6.95021 2.15903 6.94723 2.19096 6.96628L1.98054 7.31894ZM2.17638 7.26392C2.21007 7.31607 2.2472 7.3878 2.303 7.48251C2.32759 7.52427 2.3552 7.56901 2.38305 7.60711C2.39699 7.62617 2.41344 7.64698 2.43189 7.66617C2.44826 7.68318 2.47686 7.71032 2.51651 7.72981L2.69762 7.36124C2.7207 7.37258 2.73104 7.38479 2.72786 7.38148C2.72677 7.38034 2.72237 7.37542 2.71458 7.36476C2.69897 7.3434 2.67957 7.31267 2.65683 7.27407C2.61795 7.20808 2.55911 7.09958 2.52134 7.0411L2.17638 7.26392ZM2.51651 7.72981C2.62515 7.78319 2.72433 7.7632 2.77798 7.74967C2.84398 7.73303 2.84394 7.73043 2.8578 7.73043V7.31977C2.8121 7.31977 2.77264 7.32713 2.74276 7.33422C2.728 7.33771 2.71429 7.34147 2.70374 7.34439C2.69211 7.3476 2.68482 7.34965 2.67759 7.35147C2.6504 7.35833 2.67181 7.34855 2.69762 7.36124L2.51651 7.72981ZM2.70583 7.66318C2.73302 7.69311 2.77272 7.74847 2.82139 7.81569C2.84341 7.84609 2.86712 7.87859 2.88862 7.90577C2.90341 7.92445 2.93752 7.96791 2.97842 7.99586L3.21014 7.65681C3.2246 7.6667 3.23077 7.67454 3.22595 7.6693C3.22325 7.66636 3.21828 7.66057 3.21066 7.65094C3.19536 7.6316 3.17649 7.60589 3.154 7.57482C3.11364 7.51909 3.05653 7.43849 3.00976 7.38702L2.70583 7.66318ZM3.28406 7.98058C3.55348 8.09976 3.83805 8.19453 4.13405 8.26369L4.22749 7.8638C3.95561 7.80028 3.69544 7.71351 3.4502 7.60502L3.28406 7.98058ZM2.97842 7.99586C3.06176 8.05282 3.15196 8.04014 3.18314 8.03503C3.2231 8.02848 3.26381 8.01535 3.28677 8.00814C3.31679 7.99871 3.33108 7.99445 3.3412 7.99255C3.35654 7.98966 3.32732 7.99929 3.28566 7.98127L3.4486 7.60432C3.37283 7.57157 3.29916 7.58259 3.26532 7.58896C3.22626 7.5963 3.18665 7.60914 3.16368 7.61636C3.13365 7.62579 3.12229 7.62886 3.11672 7.62977C3.11499 7.63006 3.12297 7.62845 3.13684 7.62968C3.1512 7.63096 3.17975 7.63605 3.21014 7.65681L2.97842 7.99586ZM3.57209 5.47223C3.60626 4.90544 3.89508 4.26718 4.35917 3.79623C4.82055 3.32805 5.43777 3.04129 6.12828 3.13383L6.18283 2.72681C5.33603 2.61332 4.59647 2.97037 4.06667 3.50798C3.5396 4.04284 3.20287 4.77237 3.16217 5.44752L3.57209 5.47223ZM3.29035 6.43491C3.29034 6.43489 3.29049 6.4351 3.2908 6.43557C3.29111 6.43604 3.29154 6.43671 3.29209 6.4376C3.2932 6.43941 3.29465 6.44186 3.29641 6.44502C3.29999 6.45143 3.30423 6.45962 3.30905 6.46962C3.31876 6.48975 3.32916 6.51372 3.3396 6.53929C3.36076 6.59113 3.37823 6.63996 3.38918 6.66921L3.7738 6.52532C3.76526 6.50247 3.74402 6.44342 3.71982 6.38412C3.69788 6.33037 3.6641 6.25219 3.62568 6.19785L3.29035 6.43491ZM3.36481 6.85214C3.38172 6.87796 3.40912 6.93478 3.44117 7.00754C3.46787 7.06817 3.50106 7.14789 3.51908 7.18448L3.8875 7.00307C3.87434 6.97634 3.85196 6.92141 3.817 6.84202C3.78737 6.77475 3.74701 6.68617 3.70834 6.62713L3.36481 6.85214ZM3.55866 7.40709C3.55405 7.4023 3.55553 7.4028 3.56545 7.41788C3.57502 7.43242 3.58298 7.44562 3.59729 7.46822C3.60964 7.48773 3.62551 7.51221 3.64328 7.53566C3.65999 7.55774 3.68543 7.58848 3.7192 7.61452L3.96996 7.28931C3.9784 7.29582 3.97865 7.2983 3.97066 7.28774C3.96371 7.27857 3.95534 7.26604 3.94425 7.24854C3.93513 7.23412 3.92044 7.21028 3.9085 7.19213C3.8969 7.1745 3.87798 7.14664 3.85442 7.12218L3.55866 7.40709ZM4.33804 7.93173C4.23072 7.80388 4.13424 7.66133 4.04953 7.50747L3.68979 7.70553C3.78626 7.88074 3.89756 8.04572 4.0235 8.19576L4.33804 7.93173ZM3.17073 5.51977C3.1706 5.51935 3.17173 5.52325 3.17434 5.53416C3.17668 5.54396 3.17952 5.55648 3.18281 5.57139C3.18939 5.60126 3.1971 5.63773 3.20522 5.67615C3.22045 5.74822 3.23889 5.8359 3.2508 5.87887L3.64653 5.76914C3.639 5.74199 3.624 5.67165 3.607 5.59122C3.59244 5.52234 3.57431 5.4353 3.56353 5.39997L3.17073 5.51977ZM3.3304 5.99186C3.44384 6.07179 3.61231 6.19519 3.74916 6.30543C3.81828 6.3611 3.87497 6.40993 3.91194 6.44638C3.92086 6.45518 3.92782 6.46245 3.93301 6.46824C3.93558 6.47109 3.9375 6.47334 3.93889 6.47503C3.94029 6.47674 3.94088 6.47755 3.94087 6.47753C3.94084 6.4775 3.94059 6.47715 3.94016 6.4765C3.93974 6.47586 3.93906 6.4748 3.9382 6.47335C3.93663 6.47071 3.9336 6.46533 3.93036 6.45755C3.92624 6.44769 3.90869 6.40406 3.9226 6.34596L4.32198 6.44159C4.33783 6.37535 4.31854 6.32142 4.30931 6.29931C4.2983 6.27295 4.28422 6.25154 4.27373 6.23701C4.25234 6.20742 4.22542 6.17876 4.20027 6.15396C4.14849 6.10291 4.07913 6.04389 4.00677 5.98561C3.86067 5.86793 3.68453 5.73901 3.56694 5.65616L3.3304 5.99186ZM4.19586 6.20208C4.09439 6.16314 3.94048 6.10504 3.8085 6.05732C3.74277 6.03355 3.68085 6.01177 3.63307 5.99614C3.60957 5.98845 3.58683 5.98137 3.56774 5.97623C3.55859 5.97377 3.54659 5.97075 3.53405 5.96848C3.52795 5.96737 3.51802 5.96576 3.50619 5.96494C3.49973 5.9645 3.46944 5.96211 3.43338 5.97221L3.54412 6.36766C3.50952 6.37735 3.48144 6.37487 3.4779 6.37463C3.46899 6.37401 3.4627 6.3729 3.46092 6.37257C3.45702 6.37187 3.45639 6.37154 3.46104 6.37279C3.46954 6.37508 3.48413 6.37949 3.50537 6.38644C3.54707 6.40008 3.6043 6.42017 3.66886 6.44351C3.79746 6.49001 3.94869 6.54709 4.04872 6.58547L4.19586 6.20208ZM4.0494 7.50722L4.04926 7.50698L3.68979 7.70553L3.68993 7.70577L4.0494 7.50722ZM3.89653 7.18676L3.89619 7.18591L3.51621 7.34166L3.51655 7.34251L3.89653 7.18676ZM3.73605 6.69096L3.73587 6.69022L3.33691 6.78756L3.33709 6.7883L3.73605 6.69096ZM3.29712 6.0962C3.27902 6.14323 3.26722 6.18714 3.26029 6.22513C3.25433 6.2578 3.24915 6.301 3.25428 6.34193L3.66175 6.29083C3.66272 6.29857 3.66282 6.30399 3.66283 6.30606C3.66284 6.30848 3.66275 6.30963 3.66277 6.30935C3.66281 6.30871 3.66313 6.30516 3.66428 6.29884C3.66658 6.28624 3.67141 6.26701 3.68039 6.24367L3.29712 6.0962ZM3.38918 6.66921C3.3848 6.65752 3.3808 6.64119 3.38061 6.62142C3.38042 6.60139 3.3842 6.58323 3.38966 6.56819C3.39876 6.54312 3.41267 6.52875 3.40358 6.5399C3.40187 6.54198 3.39354 6.55198 3.3864 6.56152C3.37846 6.57214 3.36706 6.58848 3.35672 6.60942C3.34604 6.63106 3.33622 6.65812 3.33182 6.6901C3.32737 6.72245 3.32919 6.75474 3.33651 6.78586L3.73628 6.69192C3.74003 6.70789 3.74135 6.72642 3.73865 6.74603C3.73601 6.76527 3.73019 6.78062 3.72496 6.79121C3.72008 6.8011 3.71559 6.80705 3.7152 6.80757C3.71491 6.80796 3.71509 6.8077 3.71629 6.80621C3.71817 6.80389 3.71848 6.80354 3.72182 6.79944C3.72881 6.79087 3.75819 6.75651 3.77569 6.70827C3.78535 6.68164 3.79157 6.65111 3.79126 6.61755C3.79094 6.58424 3.78424 6.55322 3.7738 6.52532L3.38918 6.66921ZM3.51908 7.18448C3.51634 7.17891 3.51199 7.16649 3.51164 7.14994C3.51134 7.13559 3.51447 7.12655 3.51266 7.1332C3.51217 7.135 3.51164 7.13685 3.51063 7.14041C3.50975 7.1435 3.50844 7.14814 3.50711 7.15312C3.50448 7.16303 3.50069 7.17839 3.4982 7.19665C3.49267 7.23718 3.49428 7.28679 3.51551 7.33996L3.89688 7.18762C3.91667 7.23718 3.89497 7.29231 3.90894 7.24093C3.91408 7.222 3.92316 7.18602 3.92221 7.14126C3.92122 7.0943 3.90964 7.04802 3.8875 7.00307L3.51908 7.18448ZM3.7192 7.61452C3.7116 7.60866 3.70204 7.59952 3.69315 7.58643C3.68414 7.57317 3.67787 7.55888 3.6741 7.5449C3.66706 7.51882 3.67062 7.50047 3.67019 7.50333C3.67001 7.50453 3.66968 7.50638 3.66813 7.51419C3.667 7.51991 3.66443 7.53259 3.66261 7.54613C3.66077 7.55982 3.65859 7.5817 3.66065 7.60743C3.66279 7.63414 3.66975 7.66855 3.68899 7.70406L4.05007 7.50845C4.06432 7.53476 4.06875 7.55898 4.07001 7.5747C4.07118 7.58943 4.06979 7.59951 4.06961 7.60082C4.06946 7.60197 4.06944 7.60168 4.07096 7.59402C4.07206 7.58846 4.07448 7.57655 4.07638 7.56381C4.0801 7.53877 4.08511 7.49177 4.07058 7.43794C4.05454 7.37846 4.01946 7.32748 3.96996 7.28931L3.7192 7.61452Z" fill="#496584" mask="url(#path-1-outside-1_102_967)"/>
<circle cx="7.51814" cy="1.71406" r="0.107186" fill="#496584"/>
</svg>
