<svg width="14" height="14" viewBox="0 0 14 14" fill="none" xmlns="http://www.w3.org/2000/svg">
<mask id="path-1-outside-1_880_9002" maskUnits="userSpaceOnUse" x="0" y="0" width="14" height="14" fill="black">
<rect fill="white" width="14" height="14"/>
<path fill-rule="evenodd" clip-rule="evenodd" d="M12.9515 2.83327C12.0769 1.95827 10.1004 0.560085 6.64255 1.13445C6.22586 1.20366 5.23477 1.60472 4.89536 1.75476C3.61722 2.31978 2.09442 4.4351 1.78111 6.04331C1.73725 6.43388 1.6349 6.91634 1.90917 8.20538C1.92966 8.30168 1.97879 8.48382 2.02235 8.57049C2.23633 8.99618 2.17989 9.35177 2.48893 9.70102C2.65487 9.88855 2.83339 10.0646 3.02329 10.2288C3.26076 10.434 3.51601 10.6206 3.78669 10.7877C4.02951 10.9375 4.28475 11.0716 4.5507 11.1892C4.93669 11.36 5.34524 11.4961 5.77115 11.5956C5.5962 11.3872 5.44038 11.1566 5.30449 10.9097L5.30429 10.9094C5.21388 10.7451 5.13231 10.5737 5.05981 10.397L5.05929 10.3957C4.95567 10.1428 4.87062 9.87901 4.80486 9.60945L4.80459 9.60834C4.75373 9.3997 4.71444 9.18763 4.68703 8.97457C4.6419 8.62371 4.52987 8.03526 4.5507 7.68981C4.66299 5.82691 6.42736 3.58642 8.73334 3.89548C8.41899 3.37062 8.33126 2.83327 8.64561 2.03811C8.65259 2.02046 8.35868 3.68478 9.44028 4C10.5219 4.31522 12.5182 4.61343 12.8164 3.8125C12.0661 3.8125 10.9408 3.25 10.9408 2.875C11.2916 2.96202 13.3388 3.22081 12.9515 2.83327ZM3.95873 4.21903C4.27444 3.6867 5.06227 3.04083 5.49345 2.83327C5.59576 2.83327 5.63084 3.61711 5.3619 3.89548C4.93559 4.01961 4.05812 4.2581 3.95873 4.21903ZM4.28029 9.60945C4.09905 9.37992 4.00989 8.4923 4.11221 8.24201C4.1999 8.27253 4.39723 8.46787 4.47031 8.69375L4.28029 9.60945Z"/>
<path d="M5.49345 2.83327C5.06227 3.04083 4.27444 3.6867 3.95873 4.21903C4.05812 4.2581 4.93559 4.01961 5.3619 3.89548C5.63084 3.61711 5.59576 2.83327 5.49345 2.83327Z"/>
<path d="M4.89536 1.75476C4.23762 1.88927 3.38867 1.96787 2.62863 1.60159L1 5.36469C1.05737 5.47661 1.67457 6.00424 1.78111 6.04331C2.09442 4.4351 3.61722 2.31978 4.89536 1.75476Z"/>
<path d="M2.02235 8.57049C2.07108 8.84044 1.9522 9.41177 2.05159 9.54851C2.17583 9.71944 2.41499 9.61912 2.48893 9.70102C2.17989 9.35177 2.23633 8.99618 2.02235 8.57049Z"/>
<path d="M2.48893 9.70102C2.52089 9.84143 2.54677 10.1651 2.62863 10.2139C2.73094 10.275 2.94746 10.1644 3.02329 10.2288C2.83339 10.0646 2.65487 9.88855 2.48893 9.70102Z"/>
<path d="M3.02329 10.2288C3.13047 10.3947 3.31121 10.7694 3.4106 10.8183C3.53484 10.8793 3.64389 10.7877 3.78669 10.7877C3.51601 10.6206 3.26076 10.434 3.02329 10.2288Z"/>
<path d="M3.78669 10.7877C3.89763 10.9097 4.07711 11.1956 4.14142 11.2395C4.22181 11.2944 4.44838 11.145 4.5507 11.1892C4.28475 11.0716 4.02951 10.9375 3.78669 10.7877Z"/>
<path d="M4.673 8.23601C4.64383 8.13081 4.57271 7.76198 4.5507 7.68981C4.52987 8.03526 4.6419 8.62371 4.68703 8.97457C4.68323 8.94434 4.69251 8.86046 4.73313 8.7549C4.7503 8.71028 4.76261 8.66724 4.76261 8.63281C4.76261 8.57579 4.71949 8.40368 4.673 8.23601Z"/>
<path d="M4.87223 9.3959C4.843 9.31776 4.75608 9.07224 4.68703 8.97457C4.71444 9.18763 4.75373 9.3997 4.80459 9.60834C4.78323 9.51743 4.90863 9.49317 4.87223 9.3959Z"/>
<path d="M5.05494 10.1407C5.00817 10.0457 4.88823 9.73673 4.80486 9.60945C4.87062 9.87901 4.95567 10.1428 5.05929 10.3957C5.02533 10.3107 5.11311 10.2588 5.05494 10.1407Z"/>
<path d="M5.26687 10.6779C5.19087 10.6193 5.11666 10.456 5.05981 10.397C5.13231 10.5737 5.21388 10.7451 5.30429 10.9094C5.27441 10.8542 5.36167 10.751 5.26687 10.6779Z"/>
<path d="M4.11221 8.24201C4.00989 8.4923 4.09905 9.37992 4.28029 9.60945L4.47031 8.69375C4.39723 8.46787 4.1999 8.27253 4.11221 8.24201Z"/>
<path d="M4.673 8.23601C4.71949 8.40368 4.76261 8.57579 4.76261 8.63281C4.76261 8.66724 4.7503 8.71028 4.73313 8.7549C4.76801 8.74513 5.3812 8.97467 5.68343 9.09066C5.70682 8.99299 5.01956 8.4802 4.673 8.23601Z"/>
<path d="M8.7382 12.4055C9.31701 12.1418 9.53966 11.7299 9.57864 11.5569C8.23023 11.8963 6.96211 11.8739 5.77115 11.5956C7.07492 13.2041 8.72603 13.113 9.41786 12.8511C9.18985 12.5825 8.86975 12.4421 8.7382 12.4055Z"/>
</mask>
<path fill-rule="evenodd" clip-rule="evenodd" d="M12.9515 2.83327C12.0769 1.95827 10.1004 0.560085 6.64255 1.13445C6.22586 1.20366 5.23477 1.60472 4.89536 1.75476C3.61722 2.31978 2.09442 4.4351 1.78111 6.04331C1.73725 6.43388 1.6349 6.91634 1.90917 8.20538C1.92966 8.30168 1.97879 8.48382 2.02235 8.57049C2.23633 8.99618 2.17989 9.35177 2.48893 9.70102C2.65487 9.88855 2.83339 10.0646 3.02329 10.2288C3.26076 10.434 3.51601 10.6206 3.78669 10.7877C4.02951 10.9375 4.28475 11.0716 4.5507 11.1892C4.93669 11.36 5.34524 11.4961 5.77115 11.5956C5.5962 11.3872 5.44038 11.1566 5.30449 10.9097L5.30429 10.9094C5.21388 10.7451 5.13231 10.5737 5.05981 10.397L5.05929 10.3957C4.95567 10.1428 4.87062 9.87901 4.80486 9.60945L4.80459 9.60834C4.75373 9.3997 4.71444 9.18763 4.68703 8.97457C4.6419 8.62371 4.52987 8.03526 4.5507 7.68981C4.66299 5.82691 6.42736 3.58642 8.73334 3.89548C8.41899 3.37062 8.33126 2.83327 8.64561 2.03811C8.65259 2.02046 8.35868 3.68478 9.44028 4C10.5219 4.31522 12.5182 4.61343 12.8164 3.8125C12.0661 3.8125 10.9408 3.25 10.9408 2.875C11.2916 2.96202 13.3388 3.22081 12.9515 2.83327ZM3.95873 4.21903C4.27444 3.6867 5.06227 3.04083 5.49345 2.83327C5.59576 2.83327 5.63084 3.61711 5.3619 3.89548C4.93559 4.01961 4.05812 4.2581 3.95873 4.21903ZM4.28029 9.60945C4.09905 9.37992 4.00989 8.4923 4.11221 8.24201C4.1999 8.27253 4.39723 8.46787 4.47031 8.69375L4.28029 9.60945Z" fill="#A0C1DE"/>
<path d="M5.49345 2.83327C5.06227 3.04083 4.27444 3.6867 3.95873 4.21903C4.05812 4.2581 4.93559 4.01961 5.3619 3.89548C5.63084 3.61711 5.59576 2.83327 5.49345 2.83327Z" fill="#496584"/>
<path d="M4.89536 1.75476C4.23762 1.88927 3.38867 1.96787 2.62863 1.60159L1 5.36469C1.05737 5.47661 1.67457 6.00424 1.78111 6.04331C2.09442 4.4351 3.61722 2.31978 4.89536 1.75476Z" fill="#496584"/>
<path d="M2.02235 8.57049C2.07108 8.84044 1.9522 9.41177 2.05159 9.54851C2.17583 9.71944 2.41499 9.61912 2.48893 9.70102C2.17989 9.35177 2.23633 8.99618 2.02235 8.57049Z" fill="#496584"/>
<path d="M2.48893 9.70102C2.52089 9.84143 2.54677 10.1651 2.62863 10.2139C2.73094 10.275 2.94746 10.1644 3.02329 10.2288C2.83339 10.0646 2.65487 9.88855 2.48893 9.70102Z" fill="#496584"/>
<path d="M3.02329 10.2288C3.13047 10.3947 3.31121 10.7694 3.4106 10.8183C3.53484 10.8793 3.64389 10.7877 3.78669 10.7877C3.51601 10.6206 3.26076 10.434 3.02329 10.2288Z" fill="#496584"/>
<path d="M3.78669 10.7877C3.89763 10.9097 4.07711 11.1956 4.14142 11.2395C4.22181 11.2944 4.44838 11.145 4.5507 11.1892C4.28475 11.0716 4.02951 10.9375 3.78669 10.7877Z" fill="#496584"/>
<path d="M4.673 8.23601C4.64383 8.13081 4.57271 7.76198 4.5507 7.68981C4.52987 8.03526 4.6419 8.62371 4.68703 8.97457C4.68323 8.94434 4.69251 8.86046 4.73313 8.7549C4.7503 8.71028 4.76261 8.66724 4.76261 8.63281C4.76261 8.57579 4.71949 8.40368 4.673 8.23601Z" fill="#496584"/>
<path d="M4.87223 9.3959C4.843 9.31776 4.75608 9.07224 4.68703 8.97457C4.71444 9.18763 4.75373 9.3997 4.80459 9.60834C4.78323 9.51743 4.90863 9.49317 4.87223 9.3959Z" fill="#496584"/>
<path d="M5.05494 10.1407C5.00817 10.0457 4.88823 9.73673 4.80486 9.60945C4.87062 9.87901 4.95567 10.1428 5.05929 10.3957C5.02533 10.3107 5.11311 10.2588 5.05494 10.1407Z" fill="#496584"/>
<path d="M5.26687 10.6779C5.19087 10.6193 5.11666 10.456 5.05981 10.397C5.13231 10.5737 5.21388 10.7451 5.30429 10.9094C5.27441 10.8542 5.36167 10.751 5.26687 10.6779Z" fill="#496584"/>
<path d="M4.11221 8.24201C4.00989 8.4923 4.09905 9.37992 4.28029 9.60945L4.47031 8.69375C4.39723 8.46787 4.1999 8.27253 4.11221 8.24201Z" fill="#496584"/>
<path d="M4.673 8.23601C4.71949 8.40368 4.76261 8.57579 4.76261 8.63281C4.76261 8.66724 4.7503 8.71028 4.73313 8.7549C4.76801 8.74513 5.3812 8.97467 5.68343 9.09066C5.70682 8.99299 5.01956 8.4802 4.673 8.23601Z" fill="#496584"/>
<path d="M8.7382 12.4055C9.31701 12.1418 9.53966 11.7299 9.57864 11.5569C8.23023 11.8963 6.96211 11.8739 5.77115 11.5956C7.07492 13.2041 8.72603 13.113 9.41786 12.8511C9.18985 12.5825 8.86975 12.4421 8.7382 12.4055Z" fill="#496584"/>
<path d="M5.49345 2.83327V2.67927H5.45831L5.42665 2.69451L5.49345 2.83327ZM3.95873 4.21903L3.82628 4.14048L3.73395 4.29614L3.90239 4.36235L3.95873 4.21903ZM5.3619 3.89548L5.40495 4.04334L5.44423 4.03191L5.47265 4.00249L5.3619 3.89548ZM4.11221 8.24201L4.16283 8.09657L4.02491 8.04856L3.96966 8.18374L4.11221 8.24201ZM4.28029 9.60945L4.15943 9.70488L4.36401 9.96397L4.43108 9.64074L4.28029 9.60945ZM4.47031 8.69375L4.62109 8.72504L4.62938 8.68512L4.61683 8.64634L4.47031 8.69375ZM2.48893 9.70102L2.60426 9.59897L2.60426 9.59897L2.48893 9.70102ZM3.02329 10.2288L3.12399 10.1123L3.12399 10.1123L3.02329 10.2288ZM3.78669 10.7877L3.70583 10.9187L3.70583 10.9187L3.78669 10.7877ZM4.68703 8.97457L4.53429 8.99421L4.53429 8.99422L4.68703 8.97457ZM4.83309 1.61391C4.15777 1.91244 3.43801 2.6078 2.85169 3.41752C2.26369 4.22956 1.79221 5.18102 1.62996 6.01386L1.93227 6.07276C2.08332 5.2974 2.52989 4.38709 3.10115 3.59816C3.67409 2.80691 4.3548 2.1621 4.95762 1.89561L4.83309 1.61391ZM5.42665 2.69451C5.19368 2.80666 4.87711 3.02978 4.5814 3.28845C4.28584 3.54699 3.99615 3.85405 3.82628 4.14048L4.09119 4.29759C4.23703 4.05169 4.4991 3.76965 4.78418 3.52027C5.0691 3.27104 5.36204 3.06744 5.56024 2.97203L5.42665 2.69451ZM5.49345 2.98727C5.44644 2.98727 5.41567 2.96381 5.40291 2.95106C5.3911 2.93925 5.38747 2.93009 5.38858 2.93246C5.39051 2.93662 5.39638 2.95311 5.40213 2.98637C5.41319 3.05022 5.41869 3.145 5.4131 3.25195C5.40754 3.35841 5.39133 3.47024 5.36249 3.56886C5.33303 3.66962 5.29402 3.74411 5.25115 3.78848L5.47265 4.00249C5.56425 3.90767 5.62171 3.7798 5.65811 3.65529C5.69514 3.52865 5.71419 3.39233 5.72068 3.26802C5.72715 3.14422 5.72151 3.02564 5.70562 2.93383C5.6979 2.88925 5.68634 2.84232 5.66782 2.80253C5.6587 2.78292 5.64409 2.75665 5.62065 2.73323C5.59627 2.70886 5.55325 2.67927 5.49345 2.67927V2.98727ZM5.31885 3.74763C5.10695 3.80933 4.7832 3.89936 4.50087 3.96893C4.35939 4.0038 4.2306 4.03296 4.13228 4.05093C4.0828 4.05997 4.04403 4.06561 4.01656 4.06803C4.00274 4.06925 3.9946 4.06939 3.99092 4.06927C3.98384 4.06906 3.99608 4.06825 4.01507 4.07571L3.90239 4.36235C3.9338 4.3747 3.96455 4.37661 3.98145 4.37713C4.00176 4.37775 4.02308 4.37665 4.04359 4.37484C4.0848 4.37121 4.13421 4.36367 4.18764 4.35391C4.29512 4.33427 4.43097 4.30337 4.57457 4.26798C4.86241 4.19705 5.19055 4.10577 5.40495 4.04334L5.31885 3.74763ZM3.96966 8.18374C3.93285 8.27378 3.91914 8.40009 3.91587 8.52495C3.91246 8.65536 3.92017 8.80424 3.93691 8.95097C3.95364 9.0976 3.97979 9.24575 4.01451 9.3743C4.04777 9.49747 4.09374 9.62169 4.15943 9.70488L4.40116 9.51402C4.37623 9.48244 4.34308 9.40964 4.31185 9.294C4.28208 9.18374 4.25835 9.05131 4.24292 8.91606C4.2275 8.78091 4.22079 8.6466 4.22376 8.53302C4.22689 8.41387 4.2404 8.33538 4.25475 8.30028L3.96966 8.18374ZM4.31952 8.66246L4.12951 9.57816L4.43108 9.64074L4.62109 8.72504L4.31952 8.66246ZM4.61683 8.64634C4.5724 8.50903 4.49245 8.38619 4.41359 8.29432C4.37375 8.2479 4.33217 8.20703 4.29234 8.17447C4.25527 8.14417 4.20999 8.11298 4.16283 8.09657L4.06158 8.38745C4.05827 8.38629 4.07054 8.39097 4.09742 8.41294C4.12153 8.43265 4.1503 8.46046 4.17988 8.49492C4.23988 8.56482 4.29513 8.65259 4.32379 8.74115L4.61683 8.64634ZM1.88476 8.63965C1.9829 8.83489 2.01721 9.0085 2.07154 9.20539C2.1252 9.39979 2.19616 9.60254 2.3736 9.80307L2.60426 9.59897C2.47267 9.45025 2.41732 9.30058 2.36844 9.12345C2.32024 8.9488 2.27578 8.73178 2.15995 8.50133L1.88476 8.63965ZM2.3736 9.80307C2.54417 9.99583 2.72759 10.1767 2.92258 10.3453L3.12399 10.1123C2.9392 9.95253 2.76557 9.78127 2.60426 9.59897L2.3736 9.80307ZM2.92258 10.3453C3.16643 10.556 3.42834 10.7475 3.70583 10.9187L3.86756 10.6566C3.60369 10.4938 3.35508 10.312 3.12399 10.1123L2.92258 10.3453ZM3.70583 10.9187C3.95475 11.0723 4.21621 11.2096 4.4884 11.33L4.613 11.0484C4.3533 10.9335 4.10428 10.8027 3.86756 10.6566L3.70583 10.9187ZM4.5246 8.27716C4.54759 8.36007 4.56937 8.44273 4.58527 8.51089C4.59324 8.54504 4.59943 8.57425 4.60354 8.59734C4.6081 8.62296 4.60861 8.63305 4.60861 8.63281H4.91661C4.91661 8.5832 4.90081 8.50777 4.88521 8.44091C4.86793 8.36685 4.8449 8.27961 4.8214 8.19486L4.5246 8.27716ZM4.60861 8.63281C4.60861 8.63242 4.60863 8.63387 4.60809 8.6375C4.60756 8.64107 4.60661 8.64595 4.60502 8.65225C4.60177 8.66508 4.59661 8.68088 4.5894 8.6996L4.87685 8.8102C4.89517 8.76262 4.91661 8.69724 4.91661 8.63281H4.60861ZM5.4392 10.8351C5.35174 10.6762 5.27267 10.5101 5.20229 10.3385L4.91733 10.4554C4.99195 10.6373 5.07603 10.814 5.16938 10.9836L5.4392 10.8351ZM5.20179 10.3373C5.10119 10.0918 5.01848 9.83533 4.95447 9.57295L4.65525 9.64595C4.72276 9.92268 4.81015 10.1938 4.9168 10.4541L5.20179 10.3373ZM4.95421 9.57187C4.90471 9.3688 4.86645 9.16235 4.83977 8.95492L4.53429 8.99422C4.56242 9.21291 4.60276 9.43059 4.65497 9.6448L4.95421 9.57187ZM4.83977 8.95492C4.82823 8.86522 4.81248 8.76084 4.79604 8.65149C4.7795 8.54144 4.76211 8.42547 4.74679 8.30992C4.71574 8.07572 4.69499 7.85545 4.70442 7.69907L4.39698 7.68054C4.38558 7.86962 4.41043 8.1163 4.44147 8.3504C4.45719 8.469 4.47497 8.58752 4.49147 8.69728C4.50808 8.80774 4.52326 8.90848 4.53429 8.99421L4.83977 8.95492ZM12.9515 2.83327L12.7336 3.051L12.7336 3.051L12.9515 2.83327ZM6.64255 1.13445L6.59208 0.830616L6.64255 1.13445ZM9.57864 11.5569L9.8791 11.6247L9.98921 11.136L9.50348 11.2583L9.57864 11.5569ZM8.7382 12.4055L8.6105 12.1252L7.8416 12.4756L8.65559 12.7022L8.7382 12.4055ZM9.41786 12.8511L9.5269 13.1392L9.93518 12.9846L9.65267 12.6518L9.41786 12.8511ZM1.90917 8.20538L1.60792 8.26948L1.60792 8.26948L1.90917 8.20538ZM8.73334 3.89548L8.69242 4.20075L9.32604 4.28567L8.99757 3.73723L8.73334 3.89548ZM8.64561 2.03811L8.35919 1.92488L8.35919 1.92488L8.64561 2.03811ZM12.8164 3.8125L13.105 3.91996L13.2597 3.5045H12.8164V3.8125ZM10.9408 2.875L11.0149 2.57606L10.6328 2.48126V2.875H10.9408ZM4.89536 1.75476L4.95707 2.05651L4.98956 2.04987L5.01989 2.03646L4.89536 1.75476ZM2.62863 1.60159L2.76234 1.32414L2.47337 1.18488L2.34597 1.47926L2.62863 1.60159ZM1 5.36469L0.71734 5.24236L0.659587 5.3758L0.72592 5.50519L1 5.36469ZM1.78111 6.04331L2.08718 6.07768L2.11417 5.83739L1.88715 5.75414L1.78111 6.04331ZM2.02235 8.57049L2.32545 8.51579L2.31754 8.47196L2.29754 8.43217L2.02235 8.57049ZM2.05159 9.54851L2.30073 9.36743L2.30073 9.36743L2.05159 9.54851ZM2.48893 9.70102L2.78925 9.63267L2.77141 9.55429L2.71755 9.49463L2.48893 9.70102ZM2.62863 10.2139L2.47081 10.4784L2.62863 10.2139ZM3.02329 10.2288L3.28201 10.0617L3.25734 10.0235L3.22268 9.99402L3.02329 10.2288ZM3.4106 10.8183L3.27477 11.0947L3.4106 10.8183ZM3.78669 10.7877L4.01464 10.5805L3.92299 10.4797H3.78669V10.7877ZM4.14142 11.2395L4.31521 10.9852L4.31521 10.9852L4.14142 11.2395ZM4.5507 11.1892L4.6753 10.9075L4.67291 10.9065L4.5507 11.1892ZM4.5507 7.68981L4.24326 7.67128L4.23992 7.72662L4.2561 7.77966L4.5507 7.68981ZM4.68703 8.97457L4.38142 9.01289L4.39102 9.0894L4.43553 9.15236L4.68703 8.97457ZM4.87223 9.3959L5.16071 9.28798L4.87223 9.3959ZM4.80486 9.60945L4.50564 9.68246L4.51819 9.7339L4.54721 9.7782L4.80486 9.60945ZM5.05494 10.1407L4.77862 10.2767L4.77862 10.2767L5.05494 10.1407ZM5.05981 10.397L4.77483 10.5138L4.79715 10.5682L4.838 10.6106L5.05981 10.397ZM5.26687 10.6779L5.0788 10.9218L5.26687 10.6779ZM5.30449 10.9097L5.5743 10.7612L5.5741 10.7608L5.30449 10.9097ZM4.673 8.23601L4.3762 8.31831L4.40562 8.42438L4.4956 8.48778L4.673 8.23601ZM5.68343 9.09066L5.57308 9.37821L5.90114 9.50411L5.98296 9.16238L5.68343 9.09066ZM4.73313 8.7549L4.65007 8.45832L4.5012 8.50001L4.44568 8.6443L4.73313 8.7549ZM5.30429 10.9094L5.03347 11.0561L5.03469 11.0583L5.30429 10.9094ZM5.05929 10.3957L4.77326 10.5099L4.77431 10.5125L5.05929 10.3957ZM4.80459 9.60834L4.50475 9.6788L4.50537 9.68134L4.80459 9.60834ZM13.1693 2.61554C12.2406 1.68632 10.1685 0.236553 6.59208 0.830616L6.69302 1.43828C10.0323 0.883618 11.9133 2.23022 12.7336 3.051L13.1693 2.61554ZM9.27818 11.4892C9.26218 11.5602 9.10939 11.8979 8.6105 12.1252L8.86591 12.6858C9.52463 12.3856 9.81715 11.8996 9.8791 11.6247L9.27818 11.4892ZM8.65559 12.7022C8.74499 12.7271 9.00506 12.8408 9.18306 13.0505L9.65267 12.6518C9.37464 12.3243 8.99451 12.1571 8.82082 12.1088L8.65559 12.7022ZM5.70108 11.8955C6.93765 12.1845 8.25562 12.2075 9.6538 11.8556L9.50348 11.2583C8.20483 11.5851 6.98656 11.5633 5.84123 11.2957L5.70108 11.8955ZM9.30882 12.5631C8.71798 12.7868 7.21588 12.8889 6.01042 11.4017L5.53189 11.7896C6.93397 13.5193 8.73407 13.4393 9.5269 13.1392L9.30882 12.5631ZM8.99757 3.73723C8.85859 3.50519 8.77848 3.28579 8.76089 3.04566C8.74317 2.80384 8.78719 2.51776 8.93204 2.15134L8.35919 1.92488C8.18969 2.35363 8.12039 2.7338 8.14654 3.09066C8.17281 3.44921 8.29373 3.76092 8.4691 4.05374L8.99757 3.73723ZM8.93204 2.15134C8.92961 2.15731 8.92291 2.17215 8.91849 2.18092C8.91048 2.19528 8.88268 2.23468 8.86114 2.25807C8.80426 2.30201 8.61461 2.34439 8.49558 2.30691C8.42844 2.25627 8.36133 2.15625 8.34925 2.12145C8.34477 2.1035 8.33992 2.07467 8.33883 2.064C8.33832 2.05704 8.33782 2.04523 8.33775 2.04041C8.33768 2.03085 8.33809 2.02339 8.33826 2.02036C8.33866 2.01372 8.33918 2.00871 8.33929 2.00766C8.33948 2.00587 8.33963 2.00464 8.33966 2.00442C8.33971 2.00399 8.33967 2.00432 8.33942 2.00623C8.33919 2.00799 8.33891 2.01009 8.33851 2.01309C8.33694 2.02484 8.33443 2.04374 8.33154 2.06823C8.32575 2.11716 8.31846 2.18789 8.3132 2.27412C8.30276 2.44518 8.29989 2.6831 8.33486 2.93636C8.40249 3.42609 8.63287 4.0855 9.3541 4.29569L9.52646 3.7043C9.16609 3.59928 9.00263 3.26892 8.94506 2.8521C8.91744 2.65208 8.91914 2.45753 8.92805 2.31165C8.93246 2.2394 8.93854 2.18054 8.94326 2.1406C8.94562 2.12065 8.94766 2.10529 8.9491 2.09445C8.94968 2.09008 8.9506 2.08326 8.95122 2.07816C8.95125 2.07788 8.95252 2.06795 8.95319 2.05665C8.95338 2.05335 8.9538 2.04568 8.95373 2.03594C8.95365 2.03104 8.95315 2.01916 8.95264 2.01214C8.95154 2.00141 8.94668 1.97253 8.9422 1.95455C8.9301 1.91972 8.86299 1.81968 8.79583 1.76904C8.67679 1.73155 8.48712 1.77393 8.43022 1.81789C8.40866 1.84129 8.38085 1.88073 8.37281 1.89513C8.36837 1.90394 8.36165 1.91884 8.35919 1.92488L8.93204 2.15134ZM9.3541 4.29569C9.91232 4.45838 10.7095 4.61818 11.4158 4.63274C11.7673 4.63998 12.1175 4.61188 12.4102 4.517C12.7023 4.42229 12.9845 4.2437 13.105 3.91996L12.5277 3.70504C12.4992 3.78176 12.42 3.86624 12.2202 3.93103C12.0209 3.99566 11.7485 4.02347 11.4285 4.01687C10.7916 4.00375 10.0498 3.85684 9.52646 3.7043L9.3541 4.29569ZM12.8164 3.5045C12.5042 3.5045 12.0833 3.38299 11.7349 3.20888C11.5628 3.12284 11.4245 3.03181 11.3343 2.95072C11.2271 2.85422 11.2488 2.82788 11.2488 2.875H10.6328C10.6328 3.10962 10.7951 3.29422 10.9223 3.40865C11.0667 3.5385 11.2565 3.65841 11.4595 3.75987C11.8614 3.96076 12.3783 4.1205 12.8164 4.1205V3.5045ZM12.7336 3.051C12.7414 3.05879 12.7182 3.03933 12.7032 2.9924C12.6834 2.93036 12.688 2.84971 12.7332 2.78085C12.7684 2.7272 12.8101 2.70914 12.8117 2.70838C12.8171 2.7059 12.8118 2.70902 12.789 2.71362C12.6884 2.73396 12.493 2.7381 12.2394 2.72454C11.7427 2.69797 11.1644 2.61314 11.0149 2.57606L10.8666 3.17394C11.068 3.22388 11.6887 3.31195 12.2065 3.33965C12.4601 3.35322 12.7258 3.35484 12.911 3.31742C12.9597 3.30758 13.0149 3.29281 13.0679 3.26859C13.1171 3.24609 13.1933 3.20244 13.2481 3.11895C13.3129 3.02024 13.3222 2.9055 13.2899 2.80472C13.2625 2.71904 13.2099 2.6562 13.1693 2.61554L12.7336 3.051ZM6.59208 0.830616C6.34998 0.870829 5.97114 0.999344 5.63234 1.12572C5.28465 1.2554 4.94637 1.39546 4.77083 1.47306L5.01989 2.03646C5.18375 1.96402 5.51073 1.82852 5.84761 1.70287C6.19337 1.5739 6.51842 1.46728 6.69302 1.43828L6.59208 0.830616ZM4.83365 1.45301C4.19342 1.58394 3.42853 1.64519 2.76234 1.32414L2.49491 1.87905C3.34882 2.29056 4.28183 2.1946 4.95707 2.05651L4.83365 1.45301ZM2.34597 1.47926L0.71734 5.24236L1.28266 5.48702L2.91129 1.72393L2.34597 1.47926ZM1.47504 6.00894C1.45447 6.19209 1.41441 6.4358 1.41786 6.79041C1.42132 7.14593 1.46754 7.6097 1.60792 8.26948L2.21042 8.14128C2.07654 7.51202 2.0368 7.09003 2.03382 6.78442C2.03084 6.4779 2.06389 6.28509 2.08718 6.07768L1.47504 6.00894ZM0.72592 5.50519C0.753076 5.55817 0.793688 5.60468 0.816201 5.62982C0.845254 5.66227 0.879944 5.69761 0.91641 5.73312C0.989759 5.80454 1.0805 5.88651 1.17094 5.96453C1.26145 6.04262 1.35497 6.11958 1.43443 6.18068C1.47393 6.21106 1.51244 6.23943 1.54677 6.26265C1.57232 6.27993 1.62207 6.31304 1.67507 6.33248L1.88715 5.75414C1.91352 5.76381 1.92067 5.77188 1.89185 5.7524C1.87182 5.73884 1.84418 5.71871 1.80994 5.69238C1.74192 5.64007 1.65757 5.5708 1.5733 5.49811C1.48895 5.42534 1.40797 5.35198 1.34613 5.29177C1.315 5.26146 1.29123 5.23691 1.27513 5.21893C1.25249 5.19365 1.26127 5.19919 1.27408 5.22418L0.72592 5.50519ZM1.60792 8.26948C1.62882 8.36771 1.68436 8.58386 1.74717 8.70881L2.29754 8.43217C2.27322 8.38378 2.2305 8.23564 2.21042 8.14128L1.60792 8.26948ZM1.71925 8.62519C1.72545 8.65952 1.72826 8.71913 1.72564 8.80896C1.72307 8.89676 1.71643 8.98897 1.71049 9.09167C1.70491 9.18805 1.69985 9.29538 1.70428 9.39033C1.70652 9.43818 1.71147 9.49146 1.72283 9.54374C1.73345 9.59256 1.75436 9.66342 1.80245 9.72959L2.30073 9.36743C2.32398 9.39941 2.32686 9.42251 2.32476 9.41286C2.32342 9.40667 2.32097 9.39076 2.31961 9.36161C2.31685 9.30254 2.31983 9.22453 2.32545 9.12724C2.33072 9.03627 2.33845 8.92649 2.34136 8.82697C2.34422 8.72948 2.34362 8.61644 2.32545 8.51579L1.71925 8.62519ZM1.80245 9.72959C1.94908 9.93133 2.16328 9.95736 2.26543 9.96524C2.29071 9.96718 2.31827 9.96849 2.33335 9.96934C2.35219 9.97041 2.36058 9.9712 2.36489 9.9718C2.38428 9.97446 2.31842 9.97177 2.26032 9.90741L2.71755 9.49463C2.62247 9.38932 2.49899 9.36845 2.44886 9.36155C2.41841 9.35736 2.38906 9.35552 2.36829 9.35434C2.34376 9.35295 2.32982 9.35238 2.31281 9.35107C2.24584 9.3459 2.27834 9.33662 2.30073 9.36743L1.80245 9.72959ZM2.18862 9.76937C2.19396 9.79286 2.19998 9.82871 2.20866 9.88256C2.21661 9.93184 2.2263 9.99286 2.23793 10.0516C2.24922 10.1086 2.26479 10.1767 2.28756 10.2389C2.29901 10.2701 2.31537 10.3085 2.33908 10.3466C2.36129 10.3822 2.4022 10.4375 2.47081 10.4784L2.78644 9.94943C2.83458 9.97815 2.85679 10.0126 2.86179 10.0207C2.86829 10.0311 2.86895 10.0351 2.86596 10.027C2.85986 10.0103 2.85161 9.97954 2.8422 9.93201C2.83313 9.88619 2.82525 9.83691 2.8168 9.7845C2.80908 9.73665 2.79988 9.67938 2.78925 9.63267L2.18862 9.76937ZM2.47081 10.4784C2.56986 10.5375 2.67176 10.5421 2.72948 10.5409C2.78978 10.5396 2.84995 10.5296 2.88357 10.5244C2.90373 10.5212 2.91763 10.519 2.9301 10.5175C2.93591 10.5168 2.94021 10.5163 2.94335 10.5161C2.94652 10.5158 2.94774 10.5158 2.94741 10.5158C2.94712 10.5158 2.94425 10.5159 2.93936 10.5154C2.93451 10.515 2.92636 10.5139 2.91586 10.5114C2.89488 10.5063 2.85952 10.4938 2.8239 10.4635L3.22268 9.99402C3.11644 9.90379 2.99353 9.8993 2.94063 9.89988C2.88122 9.90053 2.81994 9.91083 2.78821 9.9158C2.74543 9.9225 2.72755 9.92476 2.71611 9.92501C2.70208 9.92532 2.73855 9.92085 2.78644 9.94943L2.47081 10.4784ZM2.76457 10.3959C2.8151 10.4741 2.8708 10.5817 2.9545 10.7238C2.99139 10.7864 3.03281 10.8535 3.07457 10.9107C3.09548 10.9393 3.12015 10.9705 3.14784 10.9992C3.17239 11.0248 3.2153 11.0655 3.27477 11.0947L3.54643 10.5419C3.58105 10.5589 3.59657 10.5772 3.59179 10.5722C3.59015 10.5705 3.58356 10.5631 3.57187 10.5471C3.54845 10.5151 3.51935 10.469 3.48524 10.4111C3.42692 10.3121 3.33866 10.1494 3.28201 10.0617L2.76457 10.3959ZM3.27477 11.0947C3.43773 11.1748 3.58649 11.1448 3.66698 11.1245C3.76597 11.0996 3.76591 11.0956 3.78669 11.0956V10.4797C3.71815 10.4797 3.65897 10.4907 3.61414 10.5013C3.59199 10.5066 3.57144 10.5122 3.55561 10.5166C3.53817 10.5214 3.52724 10.5245 3.51639 10.5272C3.47559 10.5375 3.50771 10.5228 3.54643 10.5419L3.27477 11.0947ZM3.55874 10.9948C3.59953 11.0397 3.65907 11.1227 3.73209 11.2235C3.76511 11.2691 3.80068 11.3179 3.83293 11.3586C3.85511 11.3867 3.90629 11.4519 3.96763 11.4938L4.31521 10.9852C4.3369 11 4.34616 11.0118 4.33893 11.0039C4.33488 10.9995 4.32742 10.9909 4.31599 10.9764C4.29303 10.9474 4.26474 10.9088 4.231 10.8622C4.17046 10.7786 4.08479 10.6577 4.01464 10.5805L3.55874 10.9948ZM4.4261 11.4709C4.83022 11.6496 5.25707 11.7918 5.70108 11.8955L5.84123 11.2957C5.43342 11.2004 5.04317 11.0703 4.6753 10.9075L4.4261 11.4709ZM3.96763 11.4938C4.09264 11.5792 4.22794 11.5602 4.27471 11.5525C4.33465 11.5427 4.39572 11.523 4.43016 11.5122C4.47518 11.4981 4.49661 11.4917 4.5118 11.4888C4.53481 11.4845 4.49099 11.4989 4.42849 11.4719L4.67291 10.9065C4.55925 10.8574 4.44874 10.8739 4.39798 10.8834C4.33939 10.8944 4.27998 10.9137 4.24552 10.9245C4.20047 10.9387 4.18343 10.9433 4.17508 10.9447C4.17249 10.9451 4.18445 10.9427 4.20527 10.9445C4.2268 10.9464 4.26963 10.9541 4.31521 10.9852L3.96763 11.4938ZM4.85814 7.70834C4.90938 6.85815 5.34262 5.90077 6.03876 5.19435C6.73082 4.49207 7.65665 4.06193 8.69242 4.20075L8.77425 3.59022C7.50405 3.41998 6.3947 3.95555 5.60001 4.76198C4.8094 5.56425 4.3043 6.65856 4.24326 7.67128L4.85814 7.70834ZM4.43553 9.15236C4.43551 9.15233 4.43573 9.15265 4.4362 9.15336C4.43666 9.15406 4.43731 9.15507 4.43813 9.1564C4.43981 9.15911 4.44197 9.16279 4.44462 9.16753C4.44999 9.17715 4.45634 9.18944 4.46357 9.20443C4.47814 9.23462 4.49375 9.27058 4.5094 9.30893C4.54113 9.3867 4.56735 9.45994 4.58376 9.50381L5.16071 9.28798C5.14789 9.25371 5.11602 9.16513 5.07973 9.07618C5.04682 8.99555 4.99615 8.87829 4.93852 8.79677L4.43553 9.15236ZM4.54721 9.7782C4.57258 9.81694 4.61369 9.90217 4.66175 10.0113C4.70181 10.1023 4.7516 10.2218 4.77862 10.2767L5.33125 10.0046C5.31151 9.96451 5.27794 9.88212 5.22549 9.76303C5.18105 9.66213 5.12051 9.52925 5.06251 9.4407L4.54721 9.7782ZM4.838 10.6106C4.83107 10.6034 4.83329 10.6042 4.84818 10.6268C4.86254 10.6486 4.87447 10.6684 4.89594 10.7023C4.91447 10.7316 4.93827 10.7683 4.96491 10.8035C4.98999 10.8366 5.02814 10.8827 5.0788 10.9218L5.45494 10.434C5.46761 10.4437 5.46797 10.4474 5.45598 10.4316C5.44556 10.4179 5.43301 10.3991 5.41638 10.3728C5.40269 10.3512 5.38066 10.3154 5.36274 10.2882C5.34535 10.2618 5.31698 10.22 5.28163 10.1833L4.838 10.6106ZM6.00705 11.3976C5.84607 11.2058 5.70137 10.992 5.5743 10.7612L5.03469 11.0583C5.17938 11.3211 5.34633 11.5686 5.53525 11.7936L6.00705 11.3976ZM4.2561 7.77966C4.2559 7.77902 4.2576 7.78487 4.26151 7.80125C4.26502 7.81594 4.26928 7.83471 4.27421 7.85709C4.28409 7.90189 4.29565 7.9566 4.30783 8.01422C4.33068 8.12233 4.35833 8.25384 4.3762 8.31831L4.9698 8.15371C4.9585 8.11298 4.93601 8.00747 4.9105 7.88683C4.88866 7.78352 4.86146 7.65295 4.8453 7.59996L4.2561 7.77966ZM4.4956 8.48778C4.66577 8.60769 4.91846 8.79279 5.12374 8.95814C5.22741 9.04165 5.31245 9.11489 5.36791 9.16957C5.3813 9.18277 5.39172 9.19368 5.39952 9.20236C5.40337 9.20663 5.40626 9.21002 5.40833 9.21254C5.41043 9.2151 5.41132 9.21633 5.4113 9.2163C5.41126 9.21625 5.41089 9.21573 5.41024 9.21475C5.4096 9.21379 5.40858 9.2122 5.40729 9.21003C5.40494 9.20607 5.40041 9.198 5.39553 9.18633C5.38935 9.17153 5.36304 9.10609 5.3839 9.01895L5.98296 9.16238C6.00675 9.06302 5.97781 8.98213 5.96396 8.94897C5.94745 8.90943 5.92633 8.8773 5.91059 8.85552C5.87851 8.81113 5.83813 8.76814 5.8004 8.73094C5.72274 8.65437 5.61869 8.56584 5.51015 8.47841C5.29101 8.3019 5.02679 8.10852 4.8504 7.98424L4.4956 8.48778ZM5.79378 8.80311C5.64159 8.74471 5.41072 8.65756 5.21275 8.58598C5.11416 8.55033 5.02127 8.51765 4.9496 8.49421C4.91435 8.48267 4.88024 8.47205 4.8516 8.46435C4.83788 8.46066 4.81989 8.45612 4.80108 8.45272C4.79192 8.45106 4.77703 8.44864 4.75928 8.44741C4.74959 8.44674 4.70415 8.44317 4.65007 8.45832L4.81619 9.05149C4.76429 9.06602 4.72215 9.06231 4.71685 9.06194C4.70349 9.06102 4.69406 9.05935 4.69138 9.05886C4.68553 9.0578 4.68459 9.05731 4.69156 9.05919C4.70431 9.06262 4.72619 9.06924 4.75805 9.07966C4.82061 9.10013 4.90645 9.13025 5.0033 9.16527C5.19619 9.23501 5.42304 9.32063 5.57308 9.37821L5.79378 8.80311ZM5.5741 10.7608L5.5739 10.7605L5.03469 11.0583L5.03489 11.0587L5.5741 10.7608ZM5.3448 10.2801L5.34428 10.2789L4.77431 10.5125L4.77483 10.5138L5.3448 10.2801ZM5.10408 9.53644L5.10381 9.53533L4.50537 9.68134L4.50564 9.68246L5.10408 9.53644ZM4.44568 8.6443C4.41853 8.71484 4.40083 8.78072 4.39043 8.8377C4.38149 8.88671 4.37372 8.9515 4.38142 9.01289L4.99263 8.93624C4.99408 8.94785 4.99423 8.95599 4.99424 8.95908C4.99426 8.96272 4.99412 8.96445 4.99415 8.96402C4.99422 8.96306 4.99469 8.95775 4.99642 8.94826C4.99987 8.92936 5.00711 8.90052 5.02058 8.86551L4.44568 8.6443ZM4.58376 9.50381C4.5772 9.48627 4.5712 9.46179 4.57092 9.43213C4.57063 9.40208 4.5763 9.37485 4.58449 9.35228C4.59814 9.31468 4.61901 9.29312 4.60537 9.30984C4.60281 9.31298 4.59031 9.32798 4.57961 9.34229C4.56769 9.35821 4.5506 9.38272 4.53509 9.41413C4.51906 9.4466 4.50432 9.48718 4.49773 9.53515C4.49106 9.58368 4.49379 9.63211 4.50476 9.67879L5.10442 9.53788C5.11005 9.56184 5.11203 9.58962 5.10798 9.61905C5.10401 9.64791 5.09528 9.67092 5.08744 9.68681C5.08011 9.70165 5.07338 9.71057 5.07279 9.71135C5.07236 9.71193 5.07263 9.71155 5.07443 9.70932C5.07725 9.70584 5.07772 9.70531 5.08273 9.69917C5.09322 9.68631 5.13728 9.63476 5.16354 9.56241C5.17803 9.52247 5.18736 9.47667 5.18688 9.42632C5.18641 9.37636 5.17637 9.32984 5.16071 9.28798L4.58376 9.50381ZM4.77862 10.2767C4.77451 10.2684 4.76798 10.2497 4.76746 10.2249C4.767 10.2034 4.7717 10.1898 4.76899 10.1998C4.76825 10.2025 4.76746 10.2053 4.76594 10.2106C4.76463 10.2152 4.76265 10.2222 4.76067 10.2297C4.75672 10.2445 4.75103 10.2676 4.74729 10.295C4.739 10.3558 4.74141 10.4302 4.77327 10.5099L5.34531 10.2814C5.37501 10.3558 5.34245 10.4385 5.36341 10.3614C5.37112 10.333 5.38473 10.279 5.38331 10.2119C5.38182 10.1414 5.36446 10.072 5.33125 10.0046L4.77862 10.2767ZM5.0788 10.9218C5.0674 10.913 5.05306 10.8993 5.03972 10.8796C5.02621 10.8598 5.0168 10.8383 5.01114 10.8174C5.00059 10.7782 5.00592 10.7507 5.00529 10.755C5.00502 10.7568 5.00451 10.7596 5.00219 10.7713C5.00049 10.7799 4.99665 10.7989 4.99392 10.8192C4.99115 10.8397 4.98789 10.8726 4.99098 10.9111C4.99418 10.9512 5.00463 11.0028 5.03348 11.0561L5.5751 10.7627C5.59648 10.8021 5.60312 10.8385 5.60501 10.862C5.60678 10.8841 5.60469 10.8993 5.60442 10.9012C5.60419 10.903 5.60416 10.9025 5.60643 10.891C5.60809 10.8827 5.61172 10.8648 5.61456 10.8457C5.62015 10.8082 5.62766 10.7377 5.60587 10.6569C5.58181 10.5677 5.52919 10.4912 5.45494 10.434L5.0788 10.9218Z" fill="#496584" mask="url(#path-1-outside-1_880_9002)"/>
<circle cx="10.7772" cy="2.07106" r="0.16078" fill="#496584"/>
</svg>
