<svg width="257" height="91" viewBox="0 0 257 91" fill="none" xmlns="http://www.w3.org/2000/svg">
<path d="M36.4316 71.6273C32.3751 71.6273 29.1758 70.1218 26.8339 67.1107C24.492 64.0997 23.321 59.9804 23.321 54.7529C23.321 49.9018 24.5129 46.0752 26.8966 43.2733C29.2804 40.4295 32.5005 39.0076 36.5571 39.0076C38.5644 39.0076 40.3836 39.4467 42.0146 40.325C43.6456 41.2032 45.0257 42.4996 46.1548 44.2142H46.2803V24.4542H50.5459V63.2215C50.5459 66.9434 50.6086 69.5363 50.7341 71H46.8448C46.7194 69.2436 46.6566 67.4871 46.6566 65.7307H46.5312C45.5693 67.5289 44.1683 68.9717 42.3283 70.059C40.53 71.1046 38.5644 71.6273 36.4316 71.6273ZM36.8707 68.0517C39.6727 68.0517 41.931 67.1735 43.6456 65.417C45.3602 63.6606 46.2175 61.3396 46.2175 58.454V52.9964C46.2175 49.7763 45.3602 47.2253 43.6456 45.3434C41.9728 43.4196 39.7354 42.4578 36.9335 42.4578C34.0479 42.4578 31.7896 43.566 30.1586 45.7825C28.5276 47.9571 27.7121 50.9891 27.7121 54.8783C27.7121 58.9767 28.5276 62.1969 30.1586 64.5388C31.7896 66.8807 34.027 68.0517 36.8707 68.0517ZM74.3932 47.4135C74.3932 44.5697 74.3095 41.9768 74.1422 39.6349H78.0315C78.157 40.8059 78.2197 42.6669 78.2197 45.2179H78.4079C79.3279 43.2942 80.6662 41.7887 82.4226 40.7013C84.2209 39.5722 86.2073 39.0076 88.382 39.0076C90.6403 39.0076 92.564 39.614 94.1532 40.8268C95.7842 41.9978 96.8715 43.6287 97.4151 45.7197C98.2515 43.6706 99.5898 42.0396 101.43 40.8268C103.312 39.614 105.403 39.0076 107.703 39.0076C111.132 39.0076 113.809 40.1368 115.732 42.395C117.656 44.6115 118.618 47.6853 118.618 51.6164V71H114.29V51.8673C114.29 48.8563 113.641 46.5561 112.345 44.967C111.048 43.3778 109.187 42.5832 106.762 42.5832C104.42 42.5832 102.475 43.4824 100.928 45.2806C99.3807 47.0371 98.607 49.2535 98.607 51.93V71H94.3414V52.2437C94.3414 45.8034 91.9785 42.5832 87.2529 42.5832C85.7473 42.5832 84.3254 43.0223 82.9872 43.9006C81.6908 44.7788 80.6453 45.9707 79.8507 47.4762C79.0979 48.9399 78.7215 50.4872 78.7215 52.1182V71H74.3932V47.4135ZM135.109 71.6273C132.893 71.6273 130.864 71.1673 129.024 70.2472C127.226 69.3272 125.93 68.1144 125.135 66.6089L128.021 64.6015C128.773 65.7725 129.777 66.6716 131.032 67.2989C132.286 67.8844 133.708 68.1771 135.297 68.1771C137.179 68.1771 138.727 67.6335 139.939 66.5462C141.152 65.417 141.758 63.9951 141.758 62.2805C141.758 60.9004 141.257 59.7504 140.253 58.8303C139.291 57.8685 137.597 56.9275 135.172 56.0075C131.701 54.7111 129.254 53.3728 127.832 51.9928C126.452 50.6127 125.762 48.8981 125.762 46.8489C125.762 44.507 126.682 42.6251 128.522 41.2032C130.363 39.7395 132.809 39.0076 135.862 39.0076C137.827 39.0076 139.626 39.4467 141.257 40.325C142.929 41.2032 144.163 42.395 144.958 43.9006L142.198 45.9079C140.776 43.6078 138.643 42.4578 135.799 42.4578C134.126 42.4578 132.746 42.8551 131.659 43.6496C130.613 44.4442 130.091 45.4688 130.091 46.7234C130.091 47.9362 130.613 48.9817 131.659 49.8599C132.704 50.6963 134.649 51.6373 137.493 52.6828C140.588 53.8956 142.804 55.2338 144.142 56.6975C145.48 58.1612 146.15 59.9804 146.15 62.155C146.15 64.9988 145.146 67.2989 143.139 69.0554C141.131 70.77 138.455 71.6273 135.109 71.6273ZM163.6 71.6273C160.003 71.6273 157.264 70.4772 155.382 68.1771C153.542 65.8352 152.622 62.406 152.622 57.8894V39.6349H156.95V58.0776C156.95 64.727 159.418 68.0517 164.353 68.0517C166.235 68.0517 167.907 67.5708 169.371 66.6089C170.877 65.647 172.048 64.3088 172.884 62.5942C173.762 60.8795 174.201 58.9558 174.201 56.823V39.6349H178.53V64.727C178.53 66.6507 178.718 68.7417 179.094 71H175.205C174.829 69.2854 174.619 67.3198 174.578 65.1034H174.327C173.407 67.1526 171.985 68.7626 170.061 69.9336C168.137 71.0627 165.984 71.6273 163.6 71.6273ZM187.111 47.4135C187.111 44.5697 187.028 41.9768 186.86 39.6349H190.75C190.875 40.8059 190.938 42.6669 190.938 45.2179H191.126C192.046 43.2942 193.384 41.7887 195.141 40.7013C196.939 39.5722 198.926 39.0076 201.1 39.0076C203.359 39.0076 205.282 39.614 206.871 40.8268C208.502 41.9978 209.59 43.6287 210.133 45.7197C210.97 43.6706 212.308 42.0396 214.148 40.8268C216.03 39.614 218.121 39.0076 220.421 39.0076C223.85 39.0076 226.527 40.1368 228.451 42.395C230.374 44.6115 231.336 47.6853 231.336 51.6164V71H227.008V51.8673C227.008 48.8563 226.36 46.5561 225.063 44.967C223.767 43.3778 221.906 42.5832 219.48 42.5832C217.138 42.5832 215.194 43.4824 213.646 45.2806C212.099 47.0371 211.325 49.2535 211.325 51.93V71H207.06V52.2437C207.06 45.8034 204.697 42.5832 199.971 42.5832C198.466 42.5832 197.044 43.0223 195.705 43.9006C194.409 44.7788 193.364 45.9707 192.569 47.4762C191.816 48.9399 191.44 50.4872 191.44 52.1182V71H187.111V47.4135Z" fill="#5B9E5A"/>
<path d="M63.4603 70.3889C63.4809 70.5504 63.3625 70.7024 63.201 70.7217L62.3541 70.8225C62.2019 70.8407 62.0686 70.7335 62.0531 70.5807L59.3353 43.7509C59.3205 43.6048 59.4188 43.4663 59.5621 43.4316L59.6995 43.3984C59.8593 43.3598 60.012 43.4644 60.0328 43.6268L63.4603 70.3889Z" fill="#2F2C28"/>
<path fill-rule="evenodd" clip-rule="evenodd" d="M58.4038 30.922C58.1519 30.9259 57.8437 30.9308 57.3365 31.1092C55.867 31.6262 55.0953 33.0684 54.8743 34.1257C56.2925 36.9533 57.7518 38.0361 61.4911 39.1075C64.2525 38.969 64.9293 37.1231 65.1087 36.2646C65.3297 35.2073 65.2002 33.5767 64.0607 32.5145C63.6674 32.1479 63.3869 32.02 63.1577 31.9155C62.9779 31.8335 62.8296 31.7659 62.6831 31.6087C62.5459 31.4614 62.5342 31.243 62.5232 31.0384C62.5097 30.7861 62.4972 30.5547 62.2521 30.5034C61.808 30.4106 61.5151 30.9674 61.5151 30.9674C61.5151 30.9674 61.4697 30.3399 61.0256 30.2471C60.5816 30.1543 60.2887 30.711 60.2887 30.711C60.2887 30.711 60.2432 30.0836 59.7992 29.9908C59.554 29.9396 59.4499 30.1466 59.3365 30.3724C59.2445 30.5555 59.1463 30.7509 58.9615 30.8309C58.7643 30.9163 58.6014 30.9189 58.4038 30.922Z" fill="#CAB49A"/>
<path d="M54.8743 34.1257C54.6533 35.183 54.5239 37.9146 59.2182 38.8956C60.1007 39.0801 60.8518 39.1395 61.4911 39.1075C57.7518 38.0361 56.2925 36.9533 54.8743 34.1257Z" fill="#CAB49A"/>
<path fill-rule="evenodd" clip-rule="evenodd" d="M58.3773 31.0488C58.1254 31.0528 57.8172 31.0576 57.31 31.2361C55.8405 31.753 55.0688 33.1953 54.8478 34.2526C55.3165 35.8157 57.7836 37.4422 61.4646 39.2343C64.226 39.0959 64.9028 37.25 65.0822 36.3915C65.3032 35.3342 65.1737 33.7036 64.0342 32.6414C63.6409 32.2747 63.3604 32.1469 63.1312 32.0424C62.9514 31.9604 62.8031 31.8928 62.6566 31.7356C62.5194 31.5883 62.5077 31.3699 62.4967 31.1652C62.4832 30.9129 62.4707 30.6815 62.2255 30.6303C61.7815 30.5375 61.4886 31.0942 61.4886 31.0942C61.4886 31.0942 61.4432 30.4668 60.9991 30.374C60.5551 30.2812 60.2622 30.8379 60.2622 30.8379C60.2622 30.8379 60.2167 30.2105 59.7727 30.1177C59.5275 30.0664 59.4234 30.2735 59.31 30.4992C59.218 30.6823 59.1197 30.8778 58.935 30.9578C58.7378 31.0432 58.5749 31.0457 58.3773 31.0488Z" fill="#FFF9E9"/>
<path d="M57.31 31.2361L57.3967 31.4827L57.31 31.2361ZM58.935 30.9578L58.8312 30.7179L58.8312 30.7179L58.935 30.9578ZM59.7727 30.1177L59.8261 29.8618L59.7727 30.1177ZM60.2622 30.8379L60.0014 30.8568C60.0099 30.9732 60.0944 31.0699 60.2087 31.0937C60.3229 31.1176 60.4391 31.0629 60.4935 30.9596L60.2622 30.8379ZM54.8478 34.2526L54.5919 34.1991L54.8478 34.2526ZM64.0342 32.6414L63.856 32.8326L64.0342 32.6414ZM62.6566 31.7356L62.8479 31.5574L62.6566 31.7356ZM62.2255 30.6303L62.279 30.3744L62.2255 30.6303ZM61.4886 31.0942L61.2279 31.1131C61.2363 31.2295 61.3209 31.3262 61.4351 31.3501C61.5494 31.3739 61.6656 31.3192 61.7199 31.2159L61.4886 31.0942ZM65.0822 36.3915L65.3381 36.4449L65.0822 36.3915ZM57.3967 31.4827C57.817 31.3348 58.0826 31.3167 58.2998 31.3117C58.5173 31.3066 58.7572 31.3196 59.0389 31.1976L58.8312 30.7179C58.6642 30.7902 58.5442 30.7831 58.2877 30.789C58.0307 30.795 57.7081 30.8189 57.2232 30.9895L57.3967 31.4827ZM59.0389 31.1976C59.2063 31.1251 59.3172 30.9993 59.3947 30.8835C59.469 30.7725 59.5302 30.6417 59.5745 30.5553C59.6269 30.4534 59.6603 30.4033 59.6874 30.3789C59.696 30.3711 59.6943 30.3683 59.7192 30.3735L59.8261 29.8618C59.629 29.8206 59.4631 29.8773 59.3375 29.9904C59.2304 30.0869 59.1595 30.2191 59.1095 30.3165C59.0515 30.4295 59.0123 30.5149 58.9603 30.5927C58.9114 30.6657 58.87 30.7011 58.8312 30.7179L59.0389 31.1976ZM60.2622 30.8379C60.4935 30.9596 60.4934 30.9597 60.4934 30.9597C60.4934 30.9598 60.4934 30.9598 60.4933 30.9599C60.4933 30.96 60.4932 30.9601 60.4932 30.9601C60.4931 30.9603 60.4931 30.9604 60.493 30.9605C60.4929 30.9606 60.4929 30.9607 60.493 30.9606C60.4931 30.9604 60.4934 30.9597 60.494 30.9586C60.4952 30.9564 60.4975 30.9525 60.5007 30.947C60.5072 30.936 60.5175 30.9193 60.5312 30.899C60.5592 30.8577 60.5991 30.8053 60.6481 30.7568C60.753 30.6528 60.8517 30.6102 60.9456 30.6298L61.0526 30.1181C60.7025 30.0449 60.4327 30.2343 60.2801 30.3855C60.2004 30.4645 60.1393 30.5455 60.0985 30.6057C60.0778 30.6361 60.0618 30.6622 60.0505 30.6813C60.0448 30.6909 60.0404 30.6988 60.0371 30.7047C60.0354 30.7076 60.0341 30.7101 60.0331 30.712C60.0325 30.713 60.0321 30.7138 60.0317 30.7145C60.0315 30.7149 60.0314 30.7152 60.0312 30.7155C60.0311 30.7156 60.0311 30.7157 60.031 30.7158C60.031 30.7159 60.0309 30.716 60.0309 30.716C60.0309 30.7161 60.0308 30.7162 60.2622 30.8379ZM54.5919 34.1991C54.4754 34.7568 54.3776 35.7778 54.9486 36.7941C55.5237 37.8178 56.7434 38.7778 59.1382 39.2783L59.2451 38.7666C56.9456 38.286 55.8829 37.3898 55.4044 36.5381C54.9218 35.679 54.9993 34.8056 55.1037 34.306L54.5919 34.1991ZM59.7192 30.3735C59.8132 30.3932 59.8865 30.4718 59.941 30.609C59.9664 30.6731 59.982 30.7371 59.9911 30.7861C59.9956 30.8102 59.9983 30.8297 59.9999 30.8423C60.0006 30.8486 60.0011 30.8532 60.0013 30.8557C60.0015 30.8569 60.0015 30.8577 60.0015 30.8579C60.0015 30.858 60.0015 30.8579 60.0015 30.8577C60.0015 30.8576 60.0015 30.8575 60.0015 30.8574C60.0015 30.8573 60.0015 30.8572 60.0015 30.8571C60.0015 30.857 60.0015 30.857 60.0015 30.8569C60.0015 30.8568 60.0014 30.8568 60.2622 30.8379C60.5229 30.819 60.5229 30.8189 60.5228 30.8188C60.5228 30.8188 60.5228 30.8187 60.5228 30.8186C60.5228 30.8185 60.5228 30.8183 60.5228 30.8182C60.5228 30.8179 60.5227 30.8175 60.5227 30.8171C60.5227 30.8163 60.5226 30.8154 60.5225 30.8143C60.5223 30.8121 60.5221 30.8093 60.5217 30.806C60.5211 30.7992 60.5202 30.7902 60.5188 30.7792C60.5161 30.7572 60.5118 30.7268 60.5051 30.6907C60.4918 30.6191 60.4683 30.5205 60.4269 30.4161C60.3476 30.2165 60.1762 29.935 59.8261 29.8618L59.7192 30.3735ZM55.1037 34.306C55.314 33.2995 56.0452 31.9581 57.3967 31.4827L57.2232 30.9895C55.6357 31.548 54.8235 33.0911 54.5919 34.1991L55.1037 34.306ZM64.2125 32.4502C63.8365 32.0997 63.5504 31.9486 63.3174 31.8402C63.0847 31.732 62.9719 31.6904 62.8479 31.5574L62.4654 31.9137C62.6746 32.1383 62.8996 32.2225 63.097 32.3142C63.294 32.4058 63.5301 32.5288 63.856 32.8326L64.2125 32.4502ZM62.8479 31.5574C62.819 31.5264 62.7952 31.4774 62.7797 31.3909C62.7632 31.2988 62.7615 31.2048 62.7536 31.0781C62.7468 30.9688 62.7347 30.8193 62.6752 30.688C62.6055 30.534 62.4761 30.4156 62.279 30.3744L62.1721 30.8861C62.197 30.8914 62.1943 30.8932 62.1991 30.9038C62.2142 30.9371 62.2247 30.9963 62.2318 31.1107C62.2379 31.2076 62.2416 31.352 62.2652 31.4834C62.2898 31.6205 62.341 31.7803 62.4654 31.9137L62.8479 31.5574ZM61.4886 31.0942C61.7493 31.0753 61.7493 31.0752 61.7493 31.0751C61.7493 31.0751 61.7493 31.075 61.7493 31.0749C61.7493 31.0748 61.7492 31.0747 61.7492 31.0745C61.7492 31.0742 61.7492 31.0738 61.7492 31.0734C61.7491 31.0727 61.749 31.0717 61.7489 31.0706C61.7487 31.0684 61.7485 31.0656 61.7482 31.0623C61.7475 31.0556 61.7466 31.0465 61.7452 31.0355C61.7426 31.0135 61.7383 30.9832 61.7315 30.947C61.7183 30.8755 61.6947 30.7768 61.6533 30.6725C61.5741 30.4728 61.4027 30.1913 61.0526 30.1181L60.9456 30.6298C61.0396 30.6495 61.1129 30.7281 61.1674 30.8653C61.1929 30.9294 61.2085 30.9934 61.2176 31.0425C61.222 31.0666 61.2248 31.086 61.2263 31.0986C61.2271 31.1049 61.2275 31.1095 61.2278 31.112C61.2279 31.1132 61.2279 31.114 61.228 31.1142C61.228 31.1143 61.228 31.1142 61.228 31.1141C61.2279 31.114 61.2279 31.1138 61.2279 31.1137C61.2279 31.1136 61.2279 31.1135 61.2279 31.1134C61.2279 31.1134 61.2279 31.1133 61.2279 31.1132C61.2279 31.1132 61.2279 31.1131 61.4886 31.0942ZM64.8264 36.338C64.722 36.8375 64.4432 37.6689 63.6569 38.2628C62.8774 38.8515 61.5446 39.2472 59.2451 38.7666L59.1382 39.2783C61.533 39.7788 63.035 39.3876 63.972 38.6799C64.9022 37.9774 65.2215 37.0027 65.3381 36.4449L64.8264 36.338ZM62.279 30.3744C61.9289 30.3013 61.6591 30.4906 61.5066 30.6418C61.4268 30.7208 61.3657 30.8018 61.3249 30.862C61.3043 30.8925 61.2882 30.9185 61.2769 30.9376C61.2713 30.9472 61.2668 30.9551 61.2635 30.961C61.2619 30.9639 61.2605 30.9664 61.2595 30.9683C61.259 30.9693 61.2585 30.9701 61.2581 30.9708C61.258 30.9712 61.2578 30.9715 61.2576 30.9718C61.2576 30.9719 61.2575 30.972 61.2574 30.9722C61.2574 30.9722 61.2574 30.9723 61.2573 30.9723C61.2573 30.9724 61.2573 30.9725 61.4886 31.0942C61.7199 31.2159 61.7199 31.216 61.7198 31.2161C61.7198 31.2161 61.7198 31.2162 61.7198 31.2162C61.7197 31.2163 61.7197 31.2164 61.7196 31.2164C61.7196 31.2166 61.7195 31.2167 61.7195 31.2168C61.7194 31.2169 61.7194 31.217 61.7194 31.2169C61.7195 31.2167 61.7198 31.2161 61.7205 31.215C61.7217 31.2127 61.7239 31.2088 61.7272 31.2033C61.7336 31.1923 61.7439 31.1756 61.7577 31.1553C61.7856 31.1141 61.8256 31.0616 61.8745 31.0131C61.9794 30.9092 62.0781 30.8665 62.1721 30.8861L62.279 30.3744ZM65.3381 36.4449C65.5696 35.337 65.4435 33.5977 64.2125 32.4502L63.856 32.8326C64.9039 33.8095 65.0367 35.3314 64.8264 36.338L65.3381 36.4449Z" fill="#62350C"/>
<path d="M59.8226 32.0037C59.7653 32.3624 59.2051 32.5293 58.9323 32.5679" stroke="#62350C" stroke-width="0.261389" stroke-linecap="round" stroke-linejoin="round"/>
<path d="M60.8346 32.1567C60.7523 32.5203 60.7228 33.019 60.6973 33.1717" stroke="#62350C" stroke-width="0.261389" stroke-linecap="round" stroke-linejoin="round"/>
<path d="M61.8741 32.4324C61.783 32.7841 62.1409 33.0546 62.3755 33.1992" stroke="#62350C" stroke-width="0.261389" stroke-linecap="round" stroke-linejoin="round"/>
<path d="M66.2155 70.0669C66.2399 70.2279 66.1248 70.382 65.9637 70.4042L65.1197 70.5206C64.9679 70.5415 64.8321 70.437 64.8131 70.2846L61.4772 43.5101C61.4591 43.3644 61.5543 43.2241 61.6968 43.1869L61.833 43.1512C61.992 43.1096 62.1473 43.2113 62.1718 43.3732L66.2155 70.0669Z" fill="#2F2C28"/>
</svg>
