<svg width="12" height="12" viewBox="0 0 12 12" fill="none" xmlns="http://www.w3.org/2000/svg">
<path d="M6 12.0005C9.31371 12.0005 12 9.31408 12 6.00024C12 2.68641 9.31371 0 6 0C2.68629 0 0 2.68641 0 6.00024C0 9.31408 2.68629 12.0005 6 12.0005Z" fill="#6666D8"/>
<path d="M6.00002 9.41118C7.88377 9.41118 9.41085 7.88406 9.41085 6.00024C9.41085 4.11642 7.88377 2.58929 6.00002 2.58929C4.11628 2.58929 2.5892 4.11642 2.5892 6.00024C2.5892 7.88406 4.11628 9.41118 6.00002 9.41118Z" fill="#FFE778"/>
<path d="M4.36422 3.92999L3.62798 5.61631L3.86074 5.7179L5.82578 5.34441L6.11043 4.69239L4.36422 3.92999Z" fill="#FEFEE3"/>
<path d="M3.7662 6.81527L4.14223 7.83957L5.08522 6.33136L3.7662 6.81527Z" fill="#FEFEE3"/>
<path d="M8.60879 6.22705L7.19477 5.88L7.08521 6.32634L7.65952 7.58732L8.2399 7.72959L8.60879 6.22705Z" fill="#FEFEE3"/>
<path d="M8.0959 4.22143L6.76934 3.62079L6.68243 3.81284L7.83511 4.79688L8.0959 4.22143Z" fill="#FEFEE3"/>
<path fill-rule="evenodd" clip-rule="evenodd" d="M4.75579 8.06323C4.75423 7.91821 4.84463 7.72072 4.98734 7.69485C5.16962 7.66194 5.36924 7.81953 5.4294 8.03168C5.53998 8.42148 5.21727 8.45494 5.01892 8.46325C4.86274 8.47176 4.75744 8.22283 4.75579 8.06323Z" stroke="#ABC837" stroke-width="0.141779"/>
<path d="M6.37433 6.51785C6.3323 6.48296 6.28572 6.45547 6.23862 6.44029C6.21494 6.43178 6.19111 6.42752 6.16779 6.42752C6.02289 6.42043 5.87575 6.59092 5.86082 6.73518C5.84473 6.89067 5.96379 7.09628 6.11687 7.12798C6.1557 7.13649 6.19449 7.14259 6.23265 7.14274" stroke="#ABC837" stroke-width="0.141779"/>
<path fill-rule="evenodd" clip-rule="evenodd" d="M6.51354 5.23181C6.49616 5.08779 6.60238 4.88925 6.74509 4.86338C6.92737 4.83047 7.1614 4.88933 7.18715 5.20021C7.20062 5.36347 7.01411 5.5543 6.85034 5.55808C6.69407 5.56233 6.53226 5.38698 6.51354 5.23181Z" stroke="#ABC837" stroke-width="0.141779"/>
<path d="M3.98838 6.1499C3.98918 6.11629 3.98654 6.08355 3.97718 6.0539C3.93384 5.91633 3.748 5.83672 3.60376 5.83519C3.51116 5.83423 3.43315 5.84796 3.37196 5.87306C3.18837 5.94795 3.15745 6.12327 3.34874 6.29893C3.3653 6.31411 3.38457 6.33071 3.40285 6.34702" stroke="#ABC837" stroke-width="0.141779"/>
<path d="M8.40319 5.68716C8.51534 5.60263 8.59934 5.45872 8.58377 5.33592C8.57469 5.26401 8.52172 5.19876 8.45319 5.15288C8.38466 5.10692 8.30008 5.08027 8.2277 5.08509C8.08942 5.0936 7.93012 5.21514 7.89265 5.35129" stroke="#ABC837" stroke-width="0.141779"/>
</svg>
